G04 #@! TF.GenerationSoftware,KiCad,Pcbnew,(5.1.4)-1*
G04 #@! TF.CreationDate,2020-01-24T10:01:54+01:00*
G04 #@! TF.ProjectId,PCB_NeoPixel,5043425f-4e65-46f5-9069-78656c2e6b69,rev?*
G04 #@! TF.SameCoordinates,Original*
G04 #@! TF.FileFunction,Other,Fab,Top*
%FSLAX46Y46*%
G04 Gerber Fmt 4.6, Leading zero omitted, Abs format (unit mm)*
G04 Created by KiCad (PCBNEW (5.1.4)-1) date 2020-01-24 10:01:54*
%MOMM*%
%LPD*%
G04 APERTURE LIST*
%ADD10C,0.100000*%
%ADD11C,0.150000*%
G04 APERTURE END LIST*
D10*
X120853200Y-107238800D02*
X120853200Y-79298800D01*
X123393200Y-107238800D02*
X120853200Y-107238800D01*
X123393200Y-79933800D02*
X123393200Y-107238800D01*
X122758200Y-79298800D02*
X123393200Y-79933800D01*
X120853200Y-79298800D02*
X122758200Y-79298800D01*
X170637200Y-107238800D02*
X170637200Y-79298800D01*
X173177200Y-107238800D02*
X170637200Y-107238800D01*
X173177200Y-79933800D02*
X173177200Y-107238800D01*
X172542200Y-79298800D02*
X173177200Y-79933800D01*
X170637200Y-79298800D02*
X172542200Y-79298800D01*
X143967200Y-85797900D02*
X144967200Y-84797900D01*
X143967200Y-102577900D02*
X143967200Y-85797900D01*
X150317200Y-102577900D02*
X143967200Y-102577900D01*
X150317200Y-84797900D02*
X150317200Y-102577900D01*
X144967200Y-84797900D02*
X150317200Y-84797900D01*
X159478400Y-93271200D02*
X159478400Y-96771200D01*
X167978400Y-96771200D02*
X159478400Y-96771200D01*
X167978400Y-93271200D02*
X167978400Y-96771200D01*
X159478400Y-93271200D02*
X167978400Y-93271200D01*
X163378400Y-94021200D02*
X163378400Y-96021200D01*
X163028400Y-94021200D02*
X163028400Y-96021200D01*
X162678400Y-94021200D02*
X162678400Y-96021200D01*
X162328400Y-94021200D02*
X162328400Y-96021200D01*
X161978400Y-94021200D02*
X161978400Y-96021200D01*
X163728400Y-94021200D02*
X163728400Y-96021200D01*
X161628400Y-94021200D02*
X161628400Y-96021200D01*
X165828400Y-96021200D02*
X161628400Y-96021200D01*
X165828400Y-94021200D02*
X165828400Y-96021200D01*
X161628400Y-94021200D02*
X165828400Y-94021200D01*
X159512000Y-74053700D02*
X159512000Y-70243700D01*
X162052000Y-74053700D02*
X162052000Y-70243700D01*
X164592000Y-74053700D02*
X164592000Y-70243700D01*
X167132000Y-74053700D02*
X167132000Y-70243700D01*
X158322000Y-74053700D02*
X168322000Y-74053700D01*
X158322000Y-83303700D02*
X158322000Y-74053700D01*
X168322000Y-83303700D02*
X158322000Y-83303700D01*
X168322000Y-74053700D02*
X168322000Y-83303700D01*
X158322000Y-83303700D02*
X168322000Y-83303700D01*
X158322000Y-89703700D02*
X158322000Y-83303700D01*
X168322000Y-89703700D02*
X158322000Y-89703700D01*
X168322000Y-83303700D02*
X168322000Y-89703700D01*
X165172000Y-86903700D02*
G75*
G03X165172000Y-86903700I-1850000J0D01*
G01*
X143383000Y-108445300D02*
X144043000Y-108445300D01*
X151003000Y-108445300D02*
X150343000Y-108445300D01*
X144043000Y-109695300D02*
X150343000Y-109695300D01*
X144043000Y-107195300D02*
X144043000Y-109695300D01*
X150343000Y-107195300D02*
X144043000Y-107195300D01*
X150343000Y-109695300D02*
X150343000Y-107195300D01*
X152556600Y-78771000D02*
X152556600Y-65071000D01*
X143556600Y-79571000D02*
X151806600Y-79571000D01*
X143556600Y-65071000D02*
X143556600Y-79571000D01*
X152556600Y-65071000D02*
X143556600Y-65071000D01*
X152556600Y-68571000D02*
X143556600Y-68571000D01*
X152562025Y-78767787D02*
X151806600Y-79571000D01*
X133052400Y-107104600D02*
X133052400Y-106966600D01*
X134083400Y-107104600D02*
X133052400Y-107104600D01*
X134083400Y-108135600D02*
X134083400Y-107104600D01*
X134221400Y-108135600D02*
X134083400Y-108135600D01*
X134221400Y-107104600D02*
X134221400Y-108135600D01*
X135252400Y-107104600D02*
X134221400Y-107104600D01*
X135252400Y-106966600D02*
X135252400Y-107104600D01*
X134221400Y-106966600D02*
X135252400Y-106966600D01*
X134221400Y-105935600D02*
X134221400Y-106966600D01*
X134083400Y-105935600D02*
X134221400Y-105935600D01*
X134083400Y-106966600D02*
X134083400Y-105935600D01*
X133052400Y-106966600D02*
X134083400Y-106966600D01*
X129552400Y-107104600D02*
X129552400Y-106966600D01*
X130583400Y-107104600D02*
X129552400Y-107104600D01*
X130583400Y-108135600D02*
X130583400Y-107104600D01*
X130721400Y-108135600D02*
X130583400Y-108135600D01*
X130721400Y-107104600D02*
X130721400Y-108135600D01*
X131752400Y-107104600D02*
X130721400Y-107104600D01*
X131752400Y-106966600D02*
X131752400Y-107104600D01*
X130721400Y-106966600D02*
X131752400Y-106966600D01*
X130721400Y-105935600D02*
X130721400Y-106966600D01*
X130583400Y-105935600D02*
X130721400Y-105935600D01*
X130583400Y-106966600D02*
X130583400Y-105935600D01*
X129552400Y-106966600D02*
X130583400Y-106966600D01*
X126052400Y-107104600D02*
X126052400Y-106966600D01*
X127083400Y-107104600D02*
X126052400Y-107104600D01*
X127083400Y-108135600D02*
X127083400Y-107104600D01*
X127221400Y-108135600D02*
X127083400Y-108135600D01*
X127221400Y-107104600D02*
X127221400Y-108135600D01*
X128252400Y-107104600D02*
X127221400Y-107104600D01*
X128252400Y-106966600D02*
X128252400Y-107104600D01*
X127221400Y-106966600D02*
X128252400Y-106966600D01*
X127221400Y-105935600D02*
X127221400Y-106966600D01*
X127083400Y-105935600D02*
X127221400Y-105935600D01*
X127083400Y-106966600D02*
X127083400Y-105935600D01*
X126052400Y-106966600D02*
X127083400Y-106966600D01*
X125052400Y-109135600D02*
X136252400Y-109135600D01*
X125052400Y-109135600D02*
X125052400Y-103635600D01*
X126552400Y-110635600D02*
X125052400Y-109135600D01*
X136252400Y-110635600D02*
X126552400Y-110635600D01*
X136252400Y-103635600D02*
X136252400Y-110635600D01*
X125052400Y-103635600D02*
X136252400Y-103635600D01*
X135527400Y-107035600D02*
G75*
G03X135527400Y-107035600I-1375000J0D01*
G01*
X132027400Y-107035600D02*
G75*
G03X132027400Y-107035600I-1375000J0D01*
G01*
X128527400Y-107035600D02*
G75*
G03X128527400Y-107035600I-1375000J0D01*
G01*
X134657600Y-74788400D02*
G75*
G03X134657600Y-74788400I-4000000J0D01*
G01*
X132405100Y-71361641D02*
X132405100Y-72161641D01*
X132805100Y-71761641D02*
X132005100Y-71761641D01*
X167099959Y-107963900D02*
X167099959Y-107163900D01*
X167499959Y-107563900D02*
X166699959Y-107563900D01*
X168073200Y-105816400D02*
G75*
G03X168073200Y-105816400I-4000000J0D01*
G01*
X132703500Y-89135241D02*
X131903500Y-89135241D01*
X132303500Y-88735241D02*
X132303500Y-89535241D01*
X134556000Y-92162000D02*
G75*
G03X134556000Y-92162000I-4000000J0D01*
G01*
D11*
X115337485Y-109095942D02*
X115289866Y-109143561D01*
X115147009Y-109191180D01*
X115051771Y-109191180D01*
X114908914Y-109143561D01*
X114813676Y-109048323D01*
X114766057Y-108953085D01*
X114718438Y-108762609D01*
X114718438Y-108619752D01*
X114766057Y-108429276D01*
X114813676Y-108334038D01*
X114908914Y-108238800D01*
X115051771Y-108191180D01*
X115147009Y-108191180D01*
X115289866Y-108238800D01*
X115337485Y-108286419D01*
X115908914Y-109191180D02*
X115813676Y-109143561D01*
X115766057Y-109095942D01*
X115718438Y-109000704D01*
X115718438Y-108714990D01*
X115766057Y-108619752D01*
X115813676Y-108572133D01*
X115908914Y-108524514D01*
X116051771Y-108524514D01*
X116147009Y-108572133D01*
X116194628Y-108619752D01*
X116242247Y-108714990D01*
X116242247Y-109000704D01*
X116194628Y-109095942D01*
X116147009Y-109143561D01*
X116051771Y-109191180D01*
X115908914Y-109191180D01*
X116670819Y-108524514D02*
X116670819Y-109191180D01*
X116670819Y-108619752D02*
X116718438Y-108572133D01*
X116813676Y-108524514D01*
X116956533Y-108524514D01*
X117051771Y-108572133D01*
X117099390Y-108667371D01*
X117099390Y-109191180D01*
X117575580Y-108524514D02*
X117575580Y-109191180D01*
X117575580Y-108619752D02*
X117623200Y-108572133D01*
X117718438Y-108524514D01*
X117861295Y-108524514D01*
X117956533Y-108572133D01*
X118004152Y-108667371D01*
X118004152Y-109191180D01*
X118242247Y-109286419D02*
X119004152Y-109286419D01*
X119432723Y-108191180D02*
X119527961Y-108191180D01*
X119623200Y-108238800D01*
X119670819Y-108286419D01*
X119718438Y-108381657D01*
X119766057Y-108572133D01*
X119766057Y-108810228D01*
X119718438Y-109000704D01*
X119670819Y-109095942D01*
X119623200Y-109143561D01*
X119527961Y-109191180D01*
X119432723Y-109191180D01*
X119337485Y-109143561D01*
X119289866Y-109095942D01*
X119242247Y-109000704D01*
X119194628Y-108810228D01*
X119194628Y-108572133D01*
X119242247Y-108381657D01*
X119289866Y-108286419D01*
X119337485Y-108238800D01*
X119432723Y-108191180D01*
X120718438Y-109191180D02*
X120147009Y-109191180D01*
X120432723Y-109191180D02*
X120432723Y-108191180D01*
X120337485Y-108334038D01*
X120242247Y-108429276D01*
X120147009Y-108476895D01*
X121051771Y-109191180D02*
X121575580Y-108524514D01*
X121051771Y-108524514D02*
X121575580Y-109191180D01*
X122480342Y-109191180D02*
X121908914Y-109191180D01*
X122194628Y-109191180D02*
X122194628Y-108191180D01*
X122099390Y-108334038D01*
X122004152Y-108429276D01*
X121908914Y-108476895D01*
X123432723Y-109191180D02*
X122861295Y-109191180D01*
X123147009Y-109191180D02*
X123147009Y-108191180D01*
X123051771Y-108334038D01*
X122956533Y-108429276D01*
X122861295Y-108476895D01*
X123623200Y-109286419D02*
X124385104Y-109286419D01*
X124956533Y-108667371D02*
X124623200Y-108667371D01*
X124623200Y-109191180D02*
X124623200Y-108191180D01*
X125099390Y-108191180D01*
X125861295Y-109143561D02*
X125766057Y-109191180D01*
X125575580Y-109191180D01*
X125480342Y-109143561D01*
X125432723Y-109048323D01*
X125432723Y-108667371D01*
X125480342Y-108572133D01*
X125575580Y-108524514D01*
X125766057Y-108524514D01*
X125861295Y-108572133D01*
X125908914Y-108667371D01*
X125908914Y-108762609D01*
X125432723Y-108857847D01*
X126337485Y-109191180D02*
X126337485Y-108524514D01*
X126337485Y-108619752D02*
X126385104Y-108572133D01*
X126480342Y-108524514D01*
X126623200Y-108524514D01*
X126718438Y-108572133D01*
X126766057Y-108667371D01*
X126766057Y-109191180D01*
X126766057Y-108667371D02*
X126813676Y-108572133D01*
X126908914Y-108524514D01*
X127051771Y-108524514D01*
X127147009Y-108572133D01*
X127194628Y-108667371D01*
X127194628Y-109191180D01*
X128099390Y-109191180D02*
X128099390Y-108667371D01*
X128051771Y-108572133D01*
X127956533Y-108524514D01*
X127766057Y-108524514D01*
X127670819Y-108572133D01*
X128099390Y-109143561D02*
X128004152Y-109191180D01*
X127766057Y-109191180D01*
X127670819Y-109143561D01*
X127623200Y-109048323D01*
X127623200Y-108953085D01*
X127670819Y-108857847D01*
X127766057Y-108810228D01*
X128004152Y-108810228D01*
X128099390Y-108762609D01*
X128718438Y-109191180D02*
X128623200Y-109143561D01*
X128575580Y-109048323D01*
X128575580Y-108191180D01*
X129480342Y-109143561D02*
X129385104Y-109191180D01*
X129194628Y-109191180D01*
X129099390Y-109143561D01*
X129051771Y-109048323D01*
X129051771Y-108667371D01*
X129099390Y-108572133D01*
X129194628Y-108524514D01*
X129385104Y-108524514D01*
X129480342Y-108572133D01*
X129527961Y-108667371D01*
X129527961Y-108762609D01*
X129051771Y-108857847D01*
X121575580Y-93602133D02*
X122289866Y-93602133D01*
X122432723Y-93649752D01*
X122527961Y-93744990D01*
X122575580Y-93887847D01*
X122575580Y-93983085D01*
X121908914Y-92697371D02*
X122575580Y-92697371D01*
X121527961Y-92935466D02*
X122242247Y-93173561D01*
X122242247Y-92554514D01*
X165121485Y-109095942D02*
X165073866Y-109143561D01*
X164931009Y-109191180D01*
X164835771Y-109191180D01*
X164692914Y-109143561D01*
X164597676Y-109048323D01*
X164550057Y-108953085D01*
X164502438Y-108762609D01*
X164502438Y-108619752D01*
X164550057Y-108429276D01*
X164597676Y-108334038D01*
X164692914Y-108238800D01*
X164835771Y-108191180D01*
X164931009Y-108191180D01*
X165073866Y-108238800D01*
X165121485Y-108286419D01*
X165692914Y-109191180D02*
X165597676Y-109143561D01*
X165550057Y-109095942D01*
X165502438Y-109000704D01*
X165502438Y-108714990D01*
X165550057Y-108619752D01*
X165597676Y-108572133D01*
X165692914Y-108524514D01*
X165835771Y-108524514D01*
X165931009Y-108572133D01*
X165978628Y-108619752D01*
X166026247Y-108714990D01*
X166026247Y-109000704D01*
X165978628Y-109095942D01*
X165931009Y-109143561D01*
X165835771Y-109191180D01*
X165692914Y-109191180D01*
X166454819Y-108524514D02*
X166454819Y-109191180D01*
X166454819Y-108619752D02*
X166502438Y-108572133D01*
X166597676Y-108524514D01*
X166740533Y-108524514D01*
X166835771Y-108572133D01*
X166883390Y-108667371D01*
X166883390Y-109191180D01*
X167359580Y-108524514D02*
X167359580Y-109191180D01*
X167359580Y-108619752D02*
X167407200Y-108572133D01*
X167502438Y-108524514D01*
X167645295Y-108524514D01*
X167740533Y-108572133D01*
X167788152Y-108667371D01*
X167788152Y-109191180D01*
X168026247Y-109286419D02*
X168788152Y-109286419D01*
X169216723Y-108191180D02*
X169311961Y-108191180D01*
X169407200Y-108238800D01*
X169454819Y-108286419D01*
X169502438Y-108381657D01*
X169550057Y-108572133D01*
X169550057Y-108810228D01*
X169502438Y-109000704D01*
X169454819Y-109095942D01*
X169407200Y-109143561D01*
X169311961Y-109191180D01*
X169216723Y-109191180D01*
X169121485Y-109143561D01*
X169073866Y-109095942D01*
X169026247Y-109000704D01*
X168978628Y-108810228D01*
X168978628Y-108572133D01*
X169026247Y-108381657D01*
X169073866Y-108286419D01*
X169121485Y-108238800D01*
X169216723Y-108191180D01*
X170502438Y-109191180D02*
X169931009Y-109191180D01*
X170216723Y-109191180D02*
X170216723Y-108191180D01*
X170121485Y-108334038D01*
X170026247Y-108429276D01*
X169931009Y-108476895D01*
X170835771Y-109191180D02*
X171359580Y-108524514D01*
X170835771Y-108524514D02*
X171359580Y-109191180D01*
X172264342Y-109191180D02*
X171692914Y-109191180D01*
X171978628Y-109191180D02*
X171978628Y-108191180D01*
X171883390Y-108334038D01*
X171788152Y-108429276D01*
X171692914Y-108476895D01*
X173216723Y-109191180D02*
X172645295Y-109191180D01*
X172931009Y-109191180D02*
X172931009Y-108191180D01*
X172835771Y-108334038D01*
X172740533Y-108429276D01*
X172645295Y-108476895D01*
X173407200Y-109286419D02*
X174169104Y-109286419D01*
X174740533Y-108667371D02*
X174407200Y-108667371D01*
X174407200Y-109191180D02*
X174407200Y-108191180D01*
X174883390Y-108191180D01*
X175645295Y-109143561D02*
X175550057Y-109191180D01*
X175359580Y-109191180D01*
X175264342Y-109143561D01*
X175216723Y-109048323D01*
X175216723Y-108667371D01*
X175264342Y-108572133D01*
X175359580Y-108524514D01*
X175550057Y-108524514D01*
X175645295Y-108572133D01*
X175692914Y-108667371D01*
X175692914Y-108762609D01*
X175216723Y-108857847D01*
X176121485Y-109191180D02*
X176121485Y-108524514D01*
X176121485Y-108619752D02*
X176169104Y-108572133D01*
X176264342Y-108524514D01*
X176407200Y-108524514D01*
X176502438Y-108572133D01*
X176550057Y-108667371D01*
X176550057Y-109191180D01*
X176550057Y-108667371D02*
X176597676Y-108572133D01*
X176692914Y-108524514D01*
X176835771Y-108524514D01*
X176931009Y-108572133D01*
X176978628Y-108667371D01*
X176978628Y-109191180D01*
X177883390Y-109191180D02*
X177883390Y-108667371D01*
X177835771Y-108572133D01*
X177740533Y-108524514D01*
X177550057Y-108524514D01*
X177454819Y-108572133D01*
X177883390Y-109143561D02*
X177788152Y-109191180D01*
X177550057Y-109191180D01*
X177454819Y-109143561D01*
X177407200Y-109048323D01*
X177407200Y-108953085D01*
X177454819Y-108857847D01*
X177550057Y-108810228D01*
X177788152Y-108810228D01*
X177883390Y-108762609D01*
X178502438Y-109191180D02*
X178407200Y-109143561D01*
X178359580Y-109048323D01*
X178359580Y-108191180D01*
X179264342Y-109143561D02*
X179169104Y-109191180D01*
X178978628Y-109191180D01*
X178883390Y-109143561D01*
X178835771Y-109048323D01*
X178835771Y-108667371D01*
X178883390Y-108572133D01*
X178978628Y-108524514D01*
X179169104Y-108524514D01*
X179264342Y-108572133D01*
X179311961Y-108667371D01*
X179311961Y-108762609D01*
X178835771Y-108857847D01*
X171359580Y-93602133D02*
X172073866Y-93602133D01*
X172216723Y-93649752D01*
X172311961Y-93744990D01*
X172359580Y-93887847D01*
X172359580Y-93983085D01*
X171359580Y-93221180D02*
X171359580Y-92602133D01*
X171740533Y-92935466D01*
X171740533Y-92792609D01*
X171788152Y-92697371D01*
X171835771Y-92649752D01*
X171931009Y-92602133D01*
X172169104Y-92602133D01*
X172264342Y-92649752D01*
X172311961Y-92697371D01*
X172359580Y-92792609D01*
X172359580Y-93078323D01*
X172311961Y-93173561D01*
X172264342Y-93221180D01*
X144023152Y-103090280D02*
X144689819Y-103090280D01*
X144261247Y-104090280D01*
X145499342Y-103423614D02*
X145499342Y-104090280D01*
X145261247Y-103042661D02*
X145023152Y-103756947D01*
X145642200Y-103756947D01*
X146499342Y-104090280D02*
X146023152Y-104090280D01*
X146023152Y-103090280D01*
X146785057Y-104042661D02*
X146927914Y-104090280D01*
X147166009Y-104090280D01*
X147261247Y-104042661D01*
X147308866Y-103995042D01*
X147356485Y-103899804D01*
X147356485Y-103804566D01*
X147308866Y-103709328D01*
X147261247Y-103661709D01*
X147166009Y-103614090D01*
X146975533Y-103566471D01*
X146880295Y-103518852D01*
X146832676Y-103471233D01*
X146785057Y-103375995D01*
X146785057Y-103280757D01*
X146832676Y-103185519D01*
X146880295Y-103137900D01*
X146975533Y-103090280D01*
X147213628Y-103090280D01*
X147356485Y-103137900D01*
X148308866Y-104090280D02*
X147737438Y-104090280D01*
X148023152Y-104090280D02*
X148023152Y-103090280D01*
X147927914Y-103233138D01*
X147832676Y-103328376D01*
X147737438Y-103375995D01*
X148689819Y-103185519D02*
X148737438Y-103137900D01*
X148832676Y-103090280D01*
X149070771Y-103090280D01*
X149166009Y-103137900D01*
X149213628Y-103185519D01*
X149261247Y-103280757D01*
X149261247Y-103375995D01*
X149213628Y-103518852D01*
X148642200Y-104090280D01*
X149261247Y-104090280D01*
X150166009Y-103090280D02*
X149689819Y-103090280D01*
X149642200Y-103566471D01*
X149689819Y-103518852D01*
X149785057Y-103471233D01*
X150023152Y-103471233D01*
X150118390Y-103518852D01*
X150166009Y-103566471D01*
X150213628Y-103661709D01*
X150213628Y-103899804D01*
X150166009Y-103995042D01*
X150118390Y-104042661D01*
X150023152Y-104090280D01*
X149785057Y-104090280D01*
X149689819Y-104042661D01*
X149642200Y-103995042D01*
X146380295Y-93140280D02*
X146380295Y-93949804D01*
X146427914Y-94045042D01*
X146475533Y-94092661D01*
X146570771Y-94140280D01*
X146761247Y-94140280D01*
X146856485Y-94092661D01*
X146904104Y-94045042D01*
X146951723Y-93949804D01*
X146951723Y-93140280D01*
X147951723Y-94140280D02*
X147380295Y-94140280D01*
X147666009Y-94140280D02*
X147666009Y-93140280D01*
X147570771Y-93283138D01*
X147475533Y-93378376D01*
X147380295Y-93425995D01*
X159514114Y-98825961D02*
X159656971Y-98873580D01*
X159895066Y-98873580D01*
X159990304Y-98825961D01*
X160037923Y-98778342D01*
X160085542Y-98683104D01*
X160085542Y-98587866D01*
X160037923Y-98492628D01*
X159990304Y-98445009D01*
X159895066Y-98397390D01*
X159704590Y-98349771D01*
X159609352Y-98302152D01*
X159561733Y-98254533D01*
X159514114Y-98159295D01*
X159514114Y-98064057D01*
X159561733Y-97968819D01*
X159609352Y-97921200D01*
X159704590Y-97873580D01*
X159942685Y-97873580D01*
X160085542Y-97921200D01*
X160418876Y-97873580D02*
X160656971Y-98873580D01*
X160847447Y-98159295D01*
X161037923Y-98873580D01*
X161276019Y-97873580D01*
X161418876Y-98968819D02*
X162180780Y-98968819D01*
X162418876Y-98873580D02*
X162418876Y-97873580D01*
X162656971Y-97873580D01*
X162799828Y-97921200D01*
X162895066Y-98016438D01*
X162942685Y-98111676D01*
X162990304Y-98302152D01*
X162990304Y-98445009D01*
X162942685Y-98635485D01*
X162895066Y-98730723D01*
X162799828Y-98825961D01*
X162656971Y-98873580D01*
X162418876Y-98873580D01*
X163418876Y-98873580D02*
X163418876Y-97873580D01*
X163895066Y-98873580D02*
X163895066Y-97873580D01*
X164276019Y-97873580D01*
X164371257Y-97921200D01*
X164418876Y-97968819D01*
X164466495Y-98064057D01*
X164466495Y-98206914D01*
X164418876Y-98302152D01*
X164371257Y-98349771D01*
X164276019Y-98397390D01*
X163895066Y-98397390D01*
X164656971Y-98968819D02*
X165418876Y-98968819D01*
X165561733Y-98873580D02*
X166085542Y-98206914D01*
X165561733Y-98206914D02*
X166085542Y-98873580D01*
X166656971Y-97873580D02*
X166752209Y-97873580D01*
X166847447Y-97921200D01*
X166895066Y-97968819D01*
X166942685Y-98064057D01*
X166990304Y-98254533D01*
X166990304Y-98492628D01*
X166942685Y-98683104D01*
X166895066Y-98778342D01*
X166847447Y-98825961D01*
X166752209Y-98873580D01*
X166656971Y-98873580D01*
X166561733Y-98825961D01*
X166514114Y-98778342D01*
X166466495Y-98683104D01*
X166418876Y-98492628D01*
X166418876Y-98254533D01*
X166466495Y-98064057D01*
X166514114Y-97968819D01*
X166561733Y-97921200D01*
X166656971Y-97873580D01*
X167942685Y-98873580D02*
X167371257Y-98873580D01*
X167656971Y-98873580D02*
X167656971Y-97873580D01*
X167561733Y-98016438D01*
X167466495Y-98111676D01*
X167371257Y-98159295D01*
X162395066Y-92175961D02*
X162537923Y-92223580D01*
X162776019Y-92223580D01*
X162871257Y-92175961D01*
X162918876Y-92128342D01*
X162966495Y-92033104D01*
X162966495Y-91937866D01*
X162918876Y-91842628D01*
X162871257Y-91795009D01*
X162776019Y-91747390D01*
X162585542Y-91699771D01*
X162490304Y-91652152D01*
X162442685Y-91604533D01*
X162395066Y-91509295D01*
X162395066Y-91414057D01*
X162442685Y-91318819D01*
X162490304Y-91271200D01*
X162585542Y-91223580D01*
X162823638Y-91223580D01*
X162966495Y-91271200D01*
X163299828Y-91223580D02*
X163537923Y-92223580D01*
X163728400Y-91509295D01*
X163918876Y-92223580D01*
X164156971Y-91223580D01*
X165061733Y-92223580D02*
X164490304Y-92223580D01*
X164776019Y-92223580D02*
X164776019Y-91223580D01*
X164680780Y-91366438D01*
X164585542Y-91461676D01*
X164490304Y-91509295D01*
X159750571Y-68696080D02*
X159750571Y-67696080D01*
X160322000Y-68696080D02*
X159893428Y-68124652D01*
X160322000Y-67696080D02*
X159750571Y-68267509D01*
X160702952Y-68410366D02*
X161179142Y-68410366D01*
X160607714Y-68696080D02*
X160941047Y-67696080D01*
X161274380Y-68696080D01*
X161512476Y-67696080D02*
X162131523Y-67696080D01*
X161798190Y-68077033D01*
X161941047Y-68077033D01*
X162036285Y-68124652D01*
X162083904Y-68172271D01*
X162131523Y-68267509D01*
X162131523Y-68505604D01*
X162083904Y-68600842D01*
X162036285Y-68648461D01*
X161941047Y-68696080D01*
X161655333Y-68696080D01*
X161560095Y-68648461D01*
X161512476Y-68600842D01*
X162464857Y-67696080D02*
X163131523Y-67696080D01*
X162702952Y-68696080D01*
X163655333Y-68124652D02*
X163560095Y-68077033D01*
X163512476Y-68029414D01*
X163464857Y-67934176D01*
X163464857Y-67886557D01*
X163512476Y-67791319D01*
X163560095Y-67743700D01*
X163655333Y-67696080D01*
X163845809Y-67696080D01*
X163941047Y-67743700D01*
X163988666Y-67791319D01*
X164036285Y-67886557D01*
X164036285Y-67934176D01*
X163988666Y-68029414D01*
X163941047Y-68077033D01*
X163845809Y-68124652D01*
X163655333Y-68124652D01*
X163560095Y-68172271D01*
X163512476Y-68219890D01*
X163464857Y-68315128D01*
X163464857Y-68505604D01*
X163512476Y-68600842D01*
X163560095Y-68648461D01*
X163655333Y-68696080D01*
X163845809Y-68696080D01*
X163941047Y-68648461D01*
X163988666Y-68600842D01*
X164036285Y-68505604D01*
X164036285Y-68315128D01*
X163988666Y-68219890D01*
X163941047Y-68172271D01*
X163845809Y-68124652D01*
X165036285Y-68696080D02*
X164702952Y-68219890D01*
X164464857Y-68696080D02*
X164464857Y-67696080D01*
X164845809Y-67696080D01*
X164941047Y-67743700D01*
X164988666Y-67791319D01*
X165036285Y-67886557D01*
X165036285Y-68029414D01*
X164988666Y-68124652D01*
X164941047Y-68172271D01*
X164845809Y-68219890D01*
X164464857Y-68219890D01*
X165655333Y-67696080D02*
X165750571Y-67696080D01*
X165845809Y-67743700D01*
X165893428Y-67791319D01*
X165941047Y-67886557D01*
X165988666Y-68077033D01*
X165988666Y-68315128D01*
X165941047Y-68505604D01*
X165893428Y-68600842D01*
X165845809Y-68648461D01*
X165750571Y-68696080D01*
X165655333Y-68696080D01*
X165560095Y-68648461D01*
X165512476Y-68600842D01*
X165464857Y-68505604D01*
X165417238Y-68315128D01*
X165417238Y-68077033D01*
X165464857Y-67886557D01*
X165512476Y-67791319D01*
X165560095Y-67743700D01*
X165655333Y-67696080D01*
X166893428Y-67696080D02*
X166417238Y-67696080D01*
X166369619Y-68172271D01*
X166417238Y-68124652D01*
X166512476Y-68077033D01*
X166750571Y-68077033D01*
X166845809Y-68124652D01*
X166893428Y-68172271D01*
X166941047Y-68267509D01*
X166941047Y-68505604D01*
X166893428Y-68600842D01*
X166845809Y-68648461D01*
X166750571Y-68696080D01*
X166512476Y-68696080D01*
X166417238Y-68648461D01*
X166369619Y-68600842D01*
X162560095Y-90276080D02*
X162560095Y-91085604D01*
X162607714Y-91180842D01*
X162655333Y-91228461D01*
X162750571Y-91276080D01*
X162941047Y-91276080D01*
X163036285Y-91228461D01*
X163083904Y-91180842D01*
X163131523Y-91085604D01*
X163131523Y-90276080D01*
X163560095Y-90371319D02*
X163607714Y-90323700D01*
X163702952Y-90276080D01*
X163941047Y-90276080D01*
X164036285Y-90323700D01*
X164083904Y-90371319D01*
X164131523Y-90466557D01*
X164131523Y-90561795D01*
X164083904Y-90704652D01*
X163512476Y-91276080D01*
X164131523Y-91276080D01*
X146431095Y-105861014D02*
X146431095Y-106527680D01*
X146193000Y-105480061D02*
X145954904Y-106194347D01*
X146573952Y-106194347D01*
X146859666Y-105527680D02*
X147526333Y-105527680D01*
X147097761Y-106527680D01*
X148097761Y-105527680D02*
X148193000Y-105527680D01*
X148288238Y-105575300D01*
X148335857Y-105622919D01*
X148383476Y-105718157D01*
X148431095Y-105908633D01*
X148431095Y-106146728D01*
X148383476Y-106337204D01*
X148335857Y-106432442D01*
X148288238Y-106480061D01*
X148193000Y-106527680D01*
X148097761Y-106527680D01*
X148002523Y-106480061D01*
X147954904Y-106432442D01*
X147907285Y-106337204D01*
X147859666Y-106146728D01*
X147859666Y-105908633D01*
X147907285Y-105718157D01*
X147954904Y-105622919D01*
X148002523Y-105575300D01*
X148097761Y-105527680D01*
X147026333Y-108897680D02*
X146693000Y-108421490D01*
X146454904Y-108897680D02*
X146454904Y-107897680D01*
X146835857Y-107897680D01*
X146931095Y-107945300D01*
X146978714Y-107992919D01*
X147026333Y-108088157D01*
X147026333Y-108231014D01*
X146978714Y-108326252D01*
X146931095Y-108373871D01*
X146835857Y-108421490D01*
X146454904Y-108421490D01*
X147978714Y-108897680D02*
X147407285Y-108897680D01*
X147693000Y-108897680D02*
X147693000Y-107897680D01*
X147597761Y-108040538D01*
X147502523Y-108135776D01*
X147407285Y-108183395D01*
X153485171Y-76309095D02*
X153532790Y-76166238D01*
X153580409Y-76118619D01*
X153675647Y-76071000D01*
X153818504Y-76071000D01*
X153913742Y-76118619D01*
X153961361Y-76166238D01*
X154008980Y-76261476D01*
X154008980Y-76642428D01*
X153008980Y-76642428D01*
X153008980Y-76309095D01*
X153056600Y-76213857D01*
X153104219Y-76166238D01*
X153199457Y-76118619D01*
X153294695Y-76118619D01*
X153389933Y-76166238D01*
X153437552Y-76213857D01*
X153485171Y-76309095D01*
X153485171Y-76642428D01*
X154008980Y-75213857D02*
X153485171Y-75213857D01*
X153389933Y-75261476D01*
X153342314Y-75356714D01*
X153342314Y-75547190D01*
X153389933Y-75642428D01*
X153961361Y-75213857D02*
X154008980Y-75309095D01*
X154008980Y-75547190D01*
X153961361Y-75642428D01*
X153866123Y-75690047D01*
X153770885Y-75690047D01*
X153675647Y-75642428D01*
X153628028Y-75547190D01*
X153628028Y-75309095D01*
X153580409Y-75213857D01*
X154008980Y-74737666D02*
X153342314Y-74737666D01*
X153532790Y-74737666D02*
X153437552Y-74690047D01*
X153389933Y-74642428D01*
X153342314Y-74547190D01*
X153342314Y-74451952D01*
X154008980Y-74118619D02*
X153342314Y-74118619D01*
X153532790Y-74118619D02*
X153437552Y-74071000D01*
X153389933Y-74023380D01*
X153342314Y-73928142D01*
X153342314Y-73832904D01*
X153961361Y-73118619D02*
X154008980Y-73213857D01*
X154008980Y-73404333D01*
X153961361Y-73499571D01*
X153866123Y-73547190D01*
X153485171Y-73547190D01*
X153389933Y-73499571D01*
X153342314Y-73404333D01*
X153342314Y-73213857D01*
X153389933Y-73118619D01*
X153485171Y-73071000D01*
X153580409Y-73071000D01*
X153675647Y-73547190D01*
X154008980Y-72499571D02*
X153961361Y-72594809D01*
X153866123Y-72642428D01*
X153008980Y-72642428D01*
X154104219Y-72356714D02*
X154104219Y-71594809D01*
X153008980Y-71071000D02*
X153723266Y-71071000D01*
X153866123Y-71118619D01*
X153961361Y-71213857D01*
X154008980Y-71356714D01*
X154008980Y-71451952D01*
X154008980Y-70166238D02*
X153485171Y-70166238D01*
X153389933Y-70213857D01*
X153342314Y-70309095D01*
X153342314Y-70499571D01*
X153389933Y-70594809D01*
X153961361Y-70166238D02*
X154008980Y-70261476D01*
X154008980Y-70499571D01*
X153961361Y-70594809D01*
X153866123Y-70642428D01*
X153770885Y-70642428D01*
X153675647Y-70594809D01*
X153628028Y-70499571D01*
X153628028Y-70261476D01*
X153580409Y-70166238D01*
X153961361Y-69261476D02*
X154008980Y-69356714D01*
X154008980Y-69547190D01*
X153961361Y-69642428D01*
X153913742Y-69690047D01*
X153818504Y-69737666D01*
X153532790Y-69737666D01*
X153437552Y-69690047D01*
X153389933Y-69642428D01*
X153342314Y-69547190D01*
X153342314Y-69356714D01*
X153389933Y-69261476D01*
X154008980Y-68832904D02*
X153008980Y-68832904D01*
X153628028Y-68737666D02*
X154008980Y-68451952D01*
X153342314Y-68451952D02*
X153723266Y-68832904D01*
X150458980Y-76104333D02*
X151173266Y-76104333D01*
X151316123Y-76151952D01*
X151411361Y-76247190D01*
X151458980Y-76390047D01*
X151458980Y-76485285D01*
X150554219Y-75675761D02*
X150506600Y-75628142D01*
X150458980Y-75532904D01*
X150458980Y-75294809D01*
X150506600Y-75199571D01*
X150554219Y-75151952D01*
X150649457Y-75104333D01*
X150744695Y-75104333D01*
X150887552Y-75151952D01*
X151458980Y-75723380D01*
X151458980Y-75104333D01*
X122414304Y-112100361D02*
X122557161Y-112147980D01*
X122795257Y-112147980D01*
X122890495Y-112100361D01*
X122938114Y-112052742D01*
X122985733Y-111957504D01*
X122985733Y-111862266D01*
X122938114Y-111767028D01*
X122890495Y-111719409D01*
X122795257Y-111671790D01*
X122604780Y-111624171D01*
X122509542Y-111576552D01*
X122461923Y-111528933D01*
X122414304Y-111433695D01*
X122414304Y-111338457D01*
X122461923Y-111243219D01*
X122509542Y-111195600D01*
X122604780Y-111147980D01*
X122842876Y-111147980D01*
X122985733Y-111195600D01*
X123842876Y-112100361D02*
X123747638Y-112147980D01*
X123557161Y-112147980D01*
X123461923Y-112100361D01*
X123414304Y-112052742D01*
X123366685Y-111957504D01*
X123366685Y-111671790D01*
X123414304Y-111576552D01*
X123461923Y-111528933D01*
X123557161Y-111481314D01*
X123747638Y-111481314D01*
X123842876Y-111528933D01*
X124271447Y-112147980D02*
X124271447Y-111481314D01*
X124271447Y-111671790D02*
X124319066Y-111576552D01*
X124366685Y-111528933D01*
X124461923Y-111481314D01*
X124557161Y-111481314D01*
X125271447Y-112100361D02*
X125176209Y-112147980D01*
X124985733Y-112147980D01*
X124890495Y-112100361D01*
X124842876Y-112005123D01*
X124842876Y-111624171D01*
X124890495Y-111528933D01*
X124985733Y-111481314D01*
X125176209Y-111481314D01*
X125271447Y-111528933D01*
X125319066Y-111624171D01*
X125319066Y-111719409D01*
X124842876Y-111814647D01*
X125652400Y-111481314D02*
X125842876Y-112147980D01*
X126033352Y-111671790D01*
X126223828Y-112147980D01*
X126414304Y-111481314D01*
X126557161Y-112243219D02*
X127319066Y-112243219D01*
X127414304Y-111147980D02*
X127985733Y-111147980D01*
X127700019Y-112147980D02*
X127700019Y-111147980D01*
X128700019Y-112100361D02*
X128604780Y-112147980D01*
X128414304Y-112147980D01*
X128319066Y-112100361D01*
X128271447Y-112005123D01*
X128271447Y-111624171D01*
X128319066Y-111528933D01*
X128414304Y-111481314D01*
X128604780Y-111481314D01*
X128700019Y-111528933D01*
X128747638Y-111624171D01*
X128747638Y-111719409D01*
X128271447Y-111814647D01*
X129176209Y-112147980D02*
X129176209Y-111481314D01*
X129176209Y-111671790D02*
X129223828Y-111576552D01*
X129271447Y-111528933D01*
X129366685Y-111481314D01*
X129461923Y-111481314D01*
X129795257Y-112147980D02*
X129795257Y-111481314D01*
X129795257Y-111576552D02*
X129842876Y-111528933D01*
X129938114Y-111481314D01*
X130080971Y-111481314D01*
X130176209Y-111528933D01*
X130223828Y-111624171D01*
X130223828Y-112147980D01*
X130223828Y-111624171D02*
X130271447Y-111528933D01*
X130366685Y-111481314D01*
X130509542Y-111481314D01*
X130604780Y-111528933D01*
X130652400Y-111624171D01*
X130652400Y-112147980D01*
X131128590Y-112147980D02*
X131128590Y-111481314D01*
X131128590Y-111147980D02*
X131080971Y-111195600D01*
X131128590Y-111243219D01*
X131176209Y-111195600D01*
X131128590Y-111147980D01*
X131128590Y-111243219D01*
X131604780Y-111481314D02*
X131604780Y-112147980D01*
X131604780Y-111576552D02*
X131652400Y-111528933D01*
X131747638Y-111481314D01*
X131890495Y-111481314D01*
X131985733Y-111528933D01*
X132033352Y-111624171D01*
X132033352Y-112147980D01*
X132938114Y-112147980D02*
X132938114Y-111624171D01*
X132890495Y-111528933D01*
X132795257Y-111481314D01*
X132604780Y-111481314D01*
X132509542Y-111528933D01*
X132938114Y-112100361D02*
X132842876Y-112147980D01*
X132604780Y-112147980D01*
X132509542Y-112100361D01*
X132461923Y-112005123D01*
X132461923Y-111909885D01*
X132509542Y-111814647D01*
X132604780Y-111767028D01*
X132842876Y-111767028D01*
X132938114Y-111719409D01*
X133557161Y-112147980D02*
X133461923Y-112100361D01*
X133414304Y-112005123D01*
X133414304Y-111147980D01*
X133700019Y-112243219D02*
X134461923Y-112243219D01*
X134890495Y-111147980D02*
X134985733Y-111147980D01*
X135080971Y-111195600D01*
X135128590Y-111243219D01*
X135176209Y-111338457D01*
X135223828Y-111528933D01*
X135223828Y-111767028D01*
X135176209Y-111957504D01*
X135128590Y-112052742D01*
X135080971Y-112100361D01*
X134985733Y-112147980D01*
X134890495Y-112147980D01*
X134795257Y-112100361D01*
X134747638Y-112052742D01*
X134700019Y-111957504D01*
X134652400Y-111767028D01*
X134652400Y-111528933D01*
X134700019Y-111338457D01*
X134747638Y-111243219D01*
X134795257Y-111195600D01*
X134890495Y-111147980D01*
X136176209Y-112147980D02*
X135604780Y-112147980D01*
X135890495Y-112147980D02*
X135890495Y-111147980D01*
X135795257Y-111290838D01*
X135700019Y-111386076D01*
X135604780Y-111433695D01*
X136509542Y-112147980D02*
X137033352Y-111481314D01*
X136509542Y-111481314D02*
X137033352Y-112147980D01*
X137604780Y-111147980D02*
X137700019Y-111147980D01*
X137795257Y-111195600D01*
X137842876Y-111243219D01*
X137890495Y-111338457D01*
X137938114Y-111528933D01*
X137938114Y-111767028D01*
X137890495Y-111957504D01*
X137842876Y-112052742D01*
X137795257Y-112100361D01*
X137700019Y-112147980D01*
X137604780Y-112147980D01*
X137509542Y-112100361D01*
X137461923Y-112052742D01*
X137414304Y-111957504D01*
X137366685Y-111767028D01*
X137366685Y-111528933D01*
X137414304Y-111338457D01*
X137461923Y-111243219D01*
X137509542Y-111195600D01*
X137604780Y-111147980D01*
X138271447Y-111147980D02*
X138890495Y-111147980D01*
X138557161Y-111528933D01*
X138700019Y-111528933D01*
X138795257Y-111576552D01*
X138842876Y-111624171D01*
X138890495Y-111719409D01*
X138890495Y-111957504D01*
X138842876Y-112052742D01*
X138795257Y-112100361D01*
X138700019Y-112147980D01*
X138414304Y-112147980D01*
X138319066Y-112100361D01*
X138271447Y-112052742D01*
X130319066Y-109387980D02*
X130319066Y-110102266D01*
X130271447Y-110245123D01*
X130176209Y-110340361D01*
X130033352Y-110387980D01*
X129938114Y-110387980D01*
X131319066Y-110387980D02*
X130747638Y-110387980D01*
X131033352Y-110387980D02*
X131033352Y-109387980D01*
X130938114Y-109530838D01*
X130842876Y-109626076D01*
X130747638Y-109673695D01*
X125193314Y-75955066D02*
X125859980Y-75955066D01*
X124812361Y-76193161D02*
X125526647Y-76431257D01*
X125526647Y-75812209D01*
X124859980Y-75526495D02*
X124859980Y-74859828D01*
X125859980Y-75288400D01*
X125193314Y-74050304D02*
X125859980Y-74050304D01*
X125193314Y-74478876D02*
X125717123Y-74478876D01*
X125812361Y-74431257D01*
X125859980Y-74336019D01*
X125859980Y-74193161D01*
X125812361Y-74097923D01*
X125764742Y-74050304D01*
X125336171Y-73240780D02*
X125336171Y-73574114D01*
X125859980Y-73574114D02*
X124859980Y-73574114D01*
X124859980Y-73097923D01*
X131014742Y-74955066D02*
X131062361Y-75002685D01*
X131109980Y-75145542D01*
X131109980Y-75240780D01*
X131062361Y-75383638D01*
X130967123Y-75478876D01*
X130871885Y-75526495D01*
X130681409Y-75574114D01*
X130538552Y-75574114D01*
X130348076Y-75526495D01*
X130252838Y-75478876D01*
X130157600Y-75383638D01*
X130109980Y-75240780D01*
X130109980Y-75145542D01*
X130157600Y-75002685D01*
X130205219Y-74955066D01*
X130109980Y-74621733D02*
X130109980Y-74002685D01*
X130490933Y-74336019D01*
X130490933Y-74193161D01*
X130538552Y-74097923D01*
X130586171Y-74050304D01*
X130681409Y-74002685D01*
X130919504Y-74002685D01*
X131014742Y-74050304D01*
X131062361Y-74097923D01*
X131109980Y-74193161D01*
X131109980Y-74478876D01*
X131062361Y-74574114D01*
X131014742Y-74621733D01*
X161954152Y-100018780D02*
X162049390Y-100018780D01*
X162144628Y-100066400D01*
X162192247Y-100114019D01*
X162239866Y-100209257D01*
X162287485Y-100399733D01*
X162287485Y-100637828D01*
X162239866Y-100828304D01*
X162192247Y-100923542D01*
X162144628Y-100971161D01*
X162049390Y-101018780D01*
X161954152Y-101018780D01*
X161858914Y-100971161D01*
X161811295Y-100923542D01*
X161763676Y-100828304D01*
X161716057Y-100637828D01*
X161716057Y-100399733D01*
X161763676Y-100209257D01*
X161811295Y-100114019D01*
X161858914Y-100066400D01*
X161954152Y-100018780D01*
X162716057Y-100923542D02*
X162763676Y-100971161D01*
X162716057Y-101018780D01*
X162668438Y-100971161D01*
X162716057Y-100923542D01*
X162716057Y-101018780D01*
X163097009Y-100018780D02*
X163716057Y-100018780D01*
X163382723Y-100399733D01*
X163525580Y-100399733D01*
X163620819Y-100447352D01*
X163668438Y-100494971D01*
X163716057Y-100590209D01*
X163716057Y-100828304D01*
X163668438Y-100923542D01*
X163620819Y-100971161D01*
X163525580Y-101018780D01*
X163239866Y-101018780D01*
X163144628Y-100971161D01*
X163097009Y-100923542D01*
X164049390Y-100018780D02*
X164668438Y-100018780D01*
X164335104Y-100399733D01*
X164477961Y-100399733D01*
X164573200Y-100447352D01*
X164620819Y-100494971D01*
X164668438Y-100590209D01*
X164668438Y-100828304D01*
X164620819Y-100923542D01*
X164573200Y-100971161D01*
X164477961Y-101018780D01*
X164192247Y-101018780D01*
X164097009Y-100971161D01*
X164049390Y-100923542D01*
X165525580Y-100352114D02*
X165525580Y-101018780D01*
X165097009Y-100352114D02*
X165097009Y-100875923D01*
X165144628Y-100971161D01*
X165239866Y-101018780D01*
X165382723Y-101018780D01*
X165477961Y-100971161D01*
X165525580Y-100923542D01*
X166335104Y-100494971D02*
X166001771Y-100494971D01*
X166001771Y-101018780D02*
X166001771Y-100018780D01*
X166477961Y-100018780D01*
X163906533Y-106173542D02*
X163858914Y-106221161D01*
X163716057Y-106268780D01*
X163620819Y-106268780D01*
X163477961Y-106221161D01*
X163382723Y-106125923D01*
X163335104Y-106030685D01*
X163287485Y-105840209D01*
X163287485Y-105697352D01*
X163335104Y-105506876D01*
X163382723Y-105411638D01*
X163477961Y-105316400D01*
X163620819Y-105268780D01*
X163716057Y-105268780D01*
X163858914Y-105316400D01*
X163906533Y-105364019D01*
X164287485Y-105364019D02*
X164335104Y-105316400D01*
X164430342Y-105268780D01*
X164668438Y-105268780D01*
X164763676Y-105316400D01*
X164811295Y-105364019D01*
X164858914Y-105459257D01*
X164858914Y-105554495D01*
X164811295Y-105697352D01*
X164239866Y-106268780D01*
X164858914Y-106268780D01*
X125758380Y-94185809D02*
X125758380Y-94757238D01*
X125758380Y-94471523D02*
X124758380Y-94471523D01*
X124901238Y-94566761D01*
X124996476Y-94662000D01*
X125044095Y-94757238D01*
X124758380Y-93566761D02*
X124758380Y-93471523D01*
X124806000Y-93376285D01*
X124853619Y-93328666D01*
X124948857Y-93281047D01*
X125139333Y-93233428D01*
X125377428Y-93233428D01*
X125567904Y-93281047D01*
X125663142Y-93328666D01*
X125710761Y-93376285D01*
X125758380Y-93471523D01*
X125758380Y-93566761D01*
X125710761Y-93662000D01*
X125663142Y-93709619D01*
X125567904Y-93757238D01*
X125377428Y-93804857D01*
X125139333Y-93804857D01*
X124948857Y-93757238D01*
X124853619Y-93709619D01*
X124806000Y-93662000D01*
X124758380Y-93566761D01*
X124758380Y-92614380D02*
X124758380Y-92519142D01*
X124806000Y-92423904D01*
X124853619Y-92376285D01*
X124948857Y-92328666D01*
X125139333Y-92281047D01*
X125377428Y-92281047D01*
X125567904Y-92328666D01*
X125663142Y-92376285D01*
X125710761Y-92423904D01*
X125758380Y-92519142D01*
X125758380Y-92614380D01*
X125710761Y-92709619D01*
X125663142Y-92757238D01*
X125567904Y-92804857D01*
X125377428Y-92852476D01*
X125139333Y-92852476D01*
X124948857Y-92804857D01*
X124853619Y-92757238D01*
X124806000Y-92709619D01*
X124758380Y-92614380D01*
X124758380Y-91662000D02*
X124758380Y-91566761D01*
X124806000Y-91471523D01*
X124853619Y-91423904D01*
X124948857Y-91376285D01*
X125139333Y-91328666D01*
X125377428Y-91328666D01*
X125567904Y-91376285D01*
X125663142Y-91423904D01*
X125710761Y-91471523D01*
X125758380Y-91566761D01*
X125758380Y-91662000D01*
X125710761Y-91757238D01*
X125663142Y-91804857D01*
X125567904Y-91852476D01*
X125377428Y-91900095D01*
X125139333Y-91900095D01*
X124948857Y-91852476D01*
X124853619Y-91804857D01*
X124806000Y-91757238D01*
X124758380Y-91662000D01*
X125091714Y-90471523D02*
X125758380Y-90471523D01*
X125091714Y-90900095D02*
X125615523Y-90900095D01*
X125710761Y-90852476D01*
X125758380Y-90757238D01*
X125758380Y-90614380D01*
X125710761Y-90519142D01*
X125663142Y-90471523D01*
X125234571Y-89662000D02*
X125234571Y-89995333D01*
X125758380Y-89995333D02*
X124758380Y-89995333D01*
X124758380Y-89519142D01*
X130608342Y-92432166D02*
X130655961Y-92479785D01*
X130703580Y-92622642D01*
X130703580Y-92717880D01*
X130655961Y-92860738D01*
X130560723Y-92955976D01*
X130465485Y-93003595D01*
X130275009Y-93051214D01*
X130132152Y-93051214D01*
X129941676Y-93003595D01*
X129846438Y-92955976D01*
X129751200Y-92860738D01*
X129703580Y-92717880D01*
X129703580Y-92622642D01*
X129751200Y-92479785D01*
X129798819Y-92432166D01*
X130703580Y-91479785D02*
X130703580Y-92051214D01*
X130703580Y-91765500D02*
X129703580Y-91765500D01*
X129846438Y-91860738D01*
X129941676Y-91955976D01*
X129989295Y-92051214D01*
X142438380Y-93630476D02*
X141438380Y-93630476D01*
X141438380Y-93392380D01*
X141486000Y-93249523D01*
X141581238Y-93154285D01*
X141676476Y-93106666D01*
X141866952Y-93059047D01*
X142009809Y-93059047D01*
X142200285Y-93106666D01*
X142295523Y-93154285D01*
X142390761Y-93249523D01*
X142438380Y-93392380D01*
X142438380Y-93630476D01*
X142438380Y-92630476D02*
X141771714Y-92630476D01*
X141438380Y-92630476D02*
X141486000Y-92678095D01*
X141533619Y-92630476D01*
X141486000Y-92582857D01*
X141438380Y-92630476D01*
X141533619Y-92630476D01*
X141771714Y-91725714D02*
X142581238Y-91725714D01*
X142676476Y-91773333D01*
X142724095Y-91820952D01*
X142771714Y-91916190D01*
X142771714Y-92059047D01*
X142724095Y-92154285D01*
X142390761Y-91725714D02*
X142438380Y-91820952D01*
X142438380Y-92011428D01*
X142390761Y-92106666D01*
X142343142Y-92154285D01*
X142247904Y-92201904D01*
X141962190Y-92201904D01*
X141866952Y-92154285D01*
X141819333Y-92106666D01*
X141771714Y-92011428D01*
X141771714Y-91820952D01*
X141819333Y-91725714D01*
X142438380Y-91249523D02*
X141771714Y-91249523D01*
X141438380Y-91249523D02*
X141486000Y-91297142D01*
X141533619Y-91249523D01*
X141486000Y-91201904D01*
X141438380Y-91249523D01*
X141533619Y-91249523D01*
X141771714Y-90916190D02*
X141771714Y-90535238D01*
X141438380Y-90773333D02*
X142295523Y-90773333D01*
X142390761Y-90725714D01*
X142438380Y-90630476D01*
X142438380Y-90535238D01*
X142438380Y-89773333D02*
X141914571Y-89773333D01*
X141819333Y-89820952D01*
X141771714Y-89916190D01*
X141771714Y-90106666D01*
X141819333Y-90201904D01*
X142390761Y-89773333D02*
X142438380Y-89868571D01*
X142438380Y-90106666D01*
X142390761Y-90201904D01*
X142295523Y-90249523D01*
X142200285Y-90249523D01*
X142105047Y-90201904D01*
X142057428Y-90106666D01*
X142057428Y-89868571D01*
X142009809Y-89773333D01*
X142438380Y-89154285D02*
X142390761Y-89249523D01*
X142295523Y-89297142D01*
X141438380Y-89297142D01*
X152312666Y-93749523D02*
X152312666Y-93273333D01*
X152598380Y-93844761D02*
X151598380Y-93511428D01*
X152598380Y-93178095D01*
X151931714Y-92844761D02*
X152598380Y-92844761D01*
X152026952Y-92844761D02*
X151979333Y-92797142D01*
X151931714Y-92701904D01*
X151931714Y-92559047D01*
X151979333Y-92463809D01*
X152074571Y-92416190D01*
X152598380Y-92416190D01*
X152598380Y-91511428D02*
X152074571Y-91511428D01*
X151979333Y-91559047D01*
X151931714Y-91654285D01*
X151931714Y-91844761D01*
X151979333Y-91940000D01*
X152550761Y-91511428D02*
X152598380Y-91606666D01*
X152598380Y-91844761D01*
X152550761Y-91940000D01*
X152455523Y-91987619D01*
X152360285Y-91987619D01*
X152265047Y-91940000D01*
X152217428Y-91844761D01*
X152217428Y-91606666D01*
X152169809Y-91511428D01*
X152598380Y-90892380D02*
X152550761Y-90987619D01*
X152455523Y-91035238D01*
X151598380Y-91035238D01*
X152598380Y-90368571D02*
X152550761Y-90463809D01*
X152503142Y-90511428D01*
X152407904Y-90559047D01*
X152122190Y-90559047D01*
X152026952Y-90511428D01*
X151979333Y-90463809D01*
X151931714Y-90368571D01*
X151931714Y-90225714D01*
X151979333Y-90130476D01*
X152026952Y-90082857D01*
X152122190Y-90035238D01*
X152407904Y-90035238D01*
X152503142Y-90082857D01*
X152550761Y-90130476D01*
X152598380Y-90225714D01*
X152598380Y-90368571D01*
X151931714Y-89178095D02*
X152741238Y-89178095D01*
X152836476Y-89225714D01*
X152884095Y-89273333D01*
X152931714Y-89368571D01*
X152931714Y-89511428D01*
X152884095Y-89606666D01*
X152550761Y-89178095D02*
X152598380Y-89273333D01*
X152598380Y-89463809D01*
X152550761Y-89559047D01*
X152503142Y-89606666D01*
X152407904Y-89654285D01*
X152122190Y-89654285D01*
X152026952Y-89606666D01*
X151979333Y-89559047D01*
X151931714Y-89463809D01*
X151931714Y-89273333D01*
X151979333Y-89178095D01*
M02*
