G04 #@! TF.GenerationSoftware,KiCad,Pcbnew,(5.1.4)-1*
G04 #@! TF.CreationDate,2020-01-24T10:01:53+01:00*
G04 #@! TF.ProjectId,PCB_NeoPixel,5043425f-4e65-46f5-9069-78656c2e6b69,rev?*
G04 #@! TF.SameCoordinates,Original*
G04 #@! TF.FileFunction,Legend,Top*
G04 #@! TF.FilePolarity,Positive*
%FSLAX46Y46*%
G04 Gerber Fmt 4.6, Leading zero omitted, Abs format (unit mm)*
G04 Created by KiCad (PCBNEW (5.1.4)-1) date 2020-01-24 10:01:53*
%MOMM*%
%LPD*%
G04 APERTURE LIST*
%ADD10C,0.150000*%
%ADD11C,0.120000*%
G04 APERTURE END LIST*
D10*
X118742672Y-124295854D02*
X118552197Y-124295220D01*
X118456801Y-124342522D01*
X118409024Y-124389983D01*
X118313311Y-124532522D01*
X118265058Y-124722839D01*
X118263791Y-125103789D01*
X118311092Y-125199185D01*
X118358553Y-125246962D01*
X118453632Y-125294898D01*
X118644107Y-125295532D01*
X118739503Y-125248230D01*
X118787280Y-125200770D01*
X118835216Y-125105691D01*
X118836008Y-124867597D01*
X118788706Y-124772201D01*
X118741246Y-124724423D01*
X118646167Y-124676488D01*
X118455692Y-124675854D01*
X118360296Y-124723156D01*
X118312519Y-124770616D01*
X118264583Y-124865695D01*
X119310928Y-125250132D02*
X119310770Y-125297750D01*
X119262834Y-125392829D01*
X119215057Y-125440290D01*
X119933142Y-124299816D02*
X120028379Y-124300133D01*
X120123459Y-124348069D01*
X120170919Y-124395846D01*
X120218221Y-124491242D01*
X120265206Y-124681875D01*
X120264413Y-124919969D01*
X120216161Y-125110286D01*
X120168225Y-125205365D01*
X120120448Y-125252825D01*
X120025052Y-125300127D01*
X119929814Y-125299810D01*
X119834735Y-125251875D01*
X119787275Y-125204097D01*
X119739973Y-125108701D01*
X119692988Y-124918068D01*
X119693780Y-124679974D01*
X119742033Y-124489657D01*
X119789969Y-124394578D01*
X119837746Y-124347118D01*
X119933142Y-124299816D01*
X121215521Y-125304089D02*
X120644096Y-125302187D01*
X120929809Y-125303138D02*
X120933136Y-124303144D01*
X120837423Y-124445683D01*
X120741869Y-124540604D01*
X120646473Y-124587906D01*
X121837893Y-124306155D02*
X121933131Y-124306471D01*
X122028210Y-124354407D01*
X122075670Y-124402184D01*
X122122972Y-124497580D01*
X122169957Y-124688214D01*
X122169165Y-124926308D01*
X122120912Y-125116625D01*
X122072976Y-125211704D01*
X122025199Y-125259164D01*
X121929803Y-125306466D01*
X121834566Y-125306149D01*
X121739486Y-125258213D01*
X121692026Y-125210436D01*
X121644724Y-125115040D01*
X121597739Y-124924406D01*
X121598532Y-124686312D01*
X121646784Y-124495996D01*
X121694720Y-124400917D01*
X121742497Y-124353456D01*
X121837893Y-124306155D01*
X123358367Y-125311220D02*
X123360585Y-124644557D01*
X123360268Y-124739794D02*
X123408045Y-124692334D01*
X123503441Y-124645032D01*
X123646298Y-124645508D01*
X123741377Y-124693443D01*
X123788679Y-124788839D01*
X123786936Y-125312646D01*
X123788679Y-124788839D02*
X123836614Y-124693760D01*
X123932011Y-124646459D01*
X124074867Y-124646934D01*
X124169946Y-124694870D01*
X124217248Y-124790266D01*
X124215505Y-125314072D01*
X124691693Y-125315657D02*
X124693911Y-124648994D01*
X124693594Y-124744232D02*
X124741371Y-124696771D01*
X124836767Y-124649469D01*
X124979624Y-124649945D01*
X125074703Y-124697880D01*
X125122005Y-124793276D01*
X125120262Y-125317083D01*
X125122005Y-124793276D02*
X125169940Y-124698197D01*
X125265336Y-124650896D01*
X125408193Y-124651371D01*
X125503272Y-124699307D01*
X125550574Y-124794703D01*
X125548831Y-125318509D01*
X124940635Y-123564095D02*
X118930635Y-123544095D01*
X124990000Y-108730000D02*
X124938684Y-124150512D01*
X118980000Y-108710000D02*
X118928684Y-124130512D01*
X118930635Y-123544095D02*
X120059084Y-122961426D01*
X118930635Y-123544095D02*
X120055181Y-124134261D01*
X124940635Y-123564095D02*
X123816089Y-122973929D01*
X124940635Y-123564095D02*
X123812186Y-124146764D01*
X127051510Y-118798639D02*
X126480083Y-118797126D01*
X126765796Y-118797883D02*
X126768444Y-117797886D01*
X126672828Y-117940491D01*
X126577338Y-118035476D01*
X126481974Y-118082843D01*
X128003887Y-118801161D02*
X127432461Y-118799648D01*
X127718174Y-118800405D02*
X127720822Y-117800408D01*
X127625206Y-117943013D01*
X127529716Y-118037998D01*
X127434352Y-118085365D01*
X128480202Y-118754803D02*
X128480076Y-118802422D01*
X128432205Y-118897534D01*
X128384460Y-118945026D01*
X128816056Y-117803308D02*
X129435101Y-117804947D01*
X129100761Y-118185016D01*
X129243617Y-118185394D01*
X129338729Y-118233265D01*
X129386222Y-118281010D01*
X129433588Y-118376374D01*
X129432958Y-118614468D01*
X129385087Y-118709580D01*
X129337342Y-118757073D01*
X129241978Y-118804439D01*
X128956265Y-118803683D01*
X128861153Y-118755812D01*
X128813660Y-118708067D01*
X129768434Y-117805830D02*
X130387479Y-117807469D01*
X130053138Y-118187537D01*
X130195995Y-118187916D01*
X130291107Y-118235787D01*
X130338599Y-118283532D01*
X130385966Y-118378896D01*
X130385336Y-118616990D01*
X130337465Y-118712102D01*
X130289720Y-118759594D01*
X130194356Y-118806961D01*
X129908642Y-118806205D01*
X129813531Y-118758334D01*
X129766038Y-118710589D01*
X131006525Y-117809108D02*
X131101762Y-117809360D01*
X131196874Y-117857231D01*
X131244367Y-117904976D01*
X131291733Y-118000340D01*
X131338848Y-118190942D01*
X131338218Y-118429036D01*
X131290094Y-118619386D01*
X131242223Y-118714497D01*
X131194478Y-118761990D01*
X131099114Y-118809357D01*
X131003877Y-118809105D01*
X130908765Y-118761234D01*
X130861272Y-118713489D01*
X130813906Y-118618125D01*
X130766791Y-118427523D01*
X130767421Y-118189429D01*
X130815545Y-117999079D01*
X130863416Y-117903968D01*
X130911161Y-117856475D01*
X131006525Y-117809108D01*
X132527681Y-118813139D02*
X132529446Y-118146475D01*
X132529194Y-118241713D02*
X132576939Y-118194220D01*
X132672303Y-118146853D01*
X132815159Y-118147232D01*
X132910271Y-118195103D01*
X132957638Y-118290466D01*
X132956251Y-118814274D01*
X132957638Y-118290466D02*
X133005509Y-118195355D01*
X133100873Y-118147988D01*
X133243729Y-118148366D01*
X133338841Y-118196237D01*
X133386208Y-118291601D01*
X133384821Y-118815409D01*
X133861010Y-118816670D02*
X133862775Y-118150005D01*
X133862523Y-118245243D02*
X133910268Y-118197750D01*
X134005631Y-118150384D01*
X134148488Y-118150762D01*
X134243600Y-118198633D01*
X134290966Y-118293997D01*
X134289579Y-118817805D01*
X134290966Y-118293997D02*
X134338837Y-118198885D01*
X134434201Y-118151519D01*
X134577058Y-118151897D01*
X134672170Y-118199768D01*
X134719536Y-118295132D01*
X134718149Y-118818939D01*
X124962566Y-117040722D02*
X136292566Y-117070722D01*
X124990000Y-106680000D02*
X124961014Y-117627140D01*
X136320000Y-106710000D02*
X136291014Y-117657140D01*
X136292566Y-117070722D02*
X135164513Y-117654158D01*
X136292566Y-117070722D02*
X135167619Y-116481321D01*
X124962566Y-117040722D02*
X126087513Y-117630123D01*
X124962566Y-117040722D02*
X126090619Y-116457286D01*
X137487618Y-108890714D02*
X137487618Y-109509761D01*
X137106665Y-109176428D01*
X137106665Y-109319285D01*
X137059046Y-109414523D01*
X137011427Y-109462142D01*
X136916189Y-109509761D01*
X136678094Y-109509761D01*
X136582856Y-109462142D01*
X136535237Y-109414523D01*
X136487618Y-109319285D01*
X136487618Y-109033571D01*
X136535237Y-108938333D01*
X136582856Y-108890714D01*
X136535237Y-109985952D02*
X136487618Y-109985952D01*
X136392379Y-109938333D01*
X136344760Y-109890714D01*
X137059046Y-110557380D02*
X137106665Y-110462142D01*
X137154284Y-110414523D01*
X137249522Y-110366904D01*
X137297141Y-110366904D01*
X137392379Y-110414523D01*
X137439999Y-110462142D01*
X137487618Y-110557380D01*
X137487618Y-110747857D01*
X137439999Y-110843095D01*
X137392379Y-110890714D01*
X137297141Y-110938333D01*
X137249522Y-110938333D01*
X137154284Y-110890714D01*
X137106665Y-110843095D01*
X137059046Y-110747857D01*
X137059046Y-110557380D01*
X137011427Y-110462142D01*
X136963808Y-110414523D01*
X136868570Y-110366904D01*
X136678094Y-110366904D01*
X136582856Y-110414523D01*
X136535237Y-110462142D01*
X136487618Y-110557380D01*
X136487618Y-110747857D01*
X136535237Y-110843095D01*
X136582856Y-110890714D01*
X136678094Y-110938333D01*
X136868570Y-110938333D01*
X136963808Y-110890714D01*
X137011427Y-110843095D01*
X137059046Y-110747857D01*
X137487618Y-111271666D02*
X137487618Y-111938333D01*
X136487618Y-111509761D01*
X137487618Y-112509761D02*
X137487618Y-112605000D01*
X137439999Y-112700238D01*
X137392379Y-112747857D01*
X137297141Y-112795476D01*
X137106665Y-112843095D01*
X136868570Y-112843095D01*
X136678094Y-112795476D01*
X136582856Y-112747857D01*
X136535237Y-112700238D01*
X136487618Y-112605000D01*
X136487618Y-112509761D01*
X136535237Y-112414523D01*
X136582856Y-112366904D01*
X136678094Y-112319285D01*
X136868570Y-112271666D01*
X137106665Y-112271666D01*
X137297141Y-112319285D01*
X137392379Y-112366904D01*
X137439999Y-112414523D01*
X137487618Y-112509761D01*
X136487618Y-114033571D02*
X137154284Y-114033571D01*
X137059046Y-114033571D02*
X137106665Y-114081190D01*
X137154284Y-114176428D01*
X137154284Y-114319285D01*
X137106665Y-114414523D01*
X137011427Y-114462142D01*
X136487618Y-114462142D01*
X137011427Y-114462142D02*
X137106665Y-114509761D01*
X137154284Y-114605000D01*
X137154284Y-114747857D01*
X137106665Y-114843095D01*
X137011427Y-114890714D01*
X136487618Y-114890714D01*
X136487618Y-115366904D02*
X137154284Y-115366904D01*
X137059046Y-115366904D02*
X137106665Y-115414523D01*
X137154284Y-115509761D01*
X137154284Y-115652619D01*
X137106665Y-115747857D01*
X137011427Y-115795476D01*
X136487618Y-115795476D01*
X137011427Y-115795476D02*
X137106665Y-115843095D01*
X137154284Y-115938333D01*
X137154284Y-116081190D01*
X137106665Y-116176428D01*
X137011427Y-116224047D01*
X136487618Y-116224047D01*
X135639999Y-110670000D02*
X135639999Y-114540000D01*
X134190000Y-110670000D02*
X136226420Y-110670000D01*
X134190000Y-114540000D02*
X136226420Y-114540000D01*
X135639999Y-114540000D02*
X135053578Y-113413496D01*
X135639999Y-114540000D02*
X136226420Y-113413496D01*
X135639999Y-110670000D02*
X135053578Y-111796504D01*
X135639999Y-110670000D02*
X136226420Y-111796504D01*
X113215917Y-69210074D02*
X113168521Y-69162233D01*
X113121347Y-69066774D01*
X113122460Y-68828681D01*
X113170523Y-68733666D01*
X113218364Y-68686270D01*
X113313824Y-68639097D01*
X113409061Y-68639542D01*
X113551694Y-68687828D01*
X114120446Y-69261921D01*
X114123339Y-68642880D01*
X114077946Y-68166472D02*
X114125564Y-68166694D01*
X114220579Y-68214758D01*
X114267975Y-68262599D01*
X114130014Y-67214324D02*
X114127344Y-67785746D01*
X114128679Y-67500035D02*
X113128690Y-67495362D01*
X113271101Y-67591267D01*
X113365893Y-67686949D01*
X113413066Y-67782408D01*
X113467360Y-66354075D02*
X114134020Y-66357190D01*
X113085300Y-66590388D02*
X113798465Y-66831818D01*
X113801358Y-66212777D01*
X113137368Y-65638240D02*
X113137813Y-65543003D01*
X113185877Y-65447988D01*
X113233718Y-65400592D01*
X113329178Y-65353419D01*
X113519874Y-65306690D01*
X113757967Y-65307803D01*
X113948218Y-65356311D01*
X114043233Y-65404375D01*
X114090629Y-65452216D01*
X114137803Y-65547675D01*
X114137357Y-65642912D01*
X114089294Y-65737927D01*
X114041453Y-65785323D01*
X113945993Y-65832497D01*
X113755297Y-65879225D01*
X113517204Y-65878112D01*
X113326952Y-65829604D01*
X113231938Y-65781540D01*
X113184542Y-65733699D01*
X113137368Y-65638240D01*
X114144478Y-64119120D02*
X113477819Y-64116004D01*
X113573056Y-64116449D02*
X113525660Y-64068608D01*
X113478486Y-63973149D01*
X113479154Y-63830293D01*
X113527217Y-63735279D01*
X113622677Y-63688105D01*
X114146481Y-63690553D01*
X113622677Y-63688105D02*
X113527662Y-63640042D01*
X113480489Y-63544582D01*
X113481156Y-63401726D01*
X113529220Y-63306712D01*
X113624679Y-63259538D01*
X114148483Y-63261986D01*
X114150708Y-62785801D02*
X113484049Y-62782686D01*
X113579286Y-62783131D02*
X113531890Y-62735290D01*
X113484717Y-62639830D01*
X113485384Y-62496974D01*
X113533448Y-62401960D01*
X113628907Y-62354786D01*
X114152711Y-62357234D01*
X113628907Y-62354786D02*
X113533893Y-62306723D01*
X113486719Y-62211263D01*
X113487387Y-62068408D01*
X113535450Y-61973393D01*
X113630910Y-61926220D01*
X114154714Y-61928667D01*
X114980413Y-66621637D02*
X114990413Y-64481637D01*
X121050000Y-66650000D02*
X114393999Y-66618897D01*
X121060000Y-64510000D02*
X114403999Y-64478897D01*
X114990413Y-64481637D02*
X115571563Y-65610869D01*
X114990413Y-64481637D02*
X114398735Y-65605388D01*
X114980413Y-66621637D02*
X115572091Y-65497886D01*
X114980413Y-66621637D02*
X114399263Y-65492405D01*
X116388092Y-58326442D02*
X116435939Y-58279051D01*
X116531403Y-58231889D01*
X116769496Y-58233028D01*
X116864505Y-58281102D01*
X116911896Y-58328948D01*
X116959059Y-58424413D01*
X116958603Y-58519650D01*
X116910301Y-58662278D01*
X116336145Y-59230966D01*
X116955185Y-59233928D01*
X117431598Y-59188588D02*
X117431370Y-59236206D01*
X117383296Y-59331215D01*
X117335450Y-59378606D01*
X118055196Y-58239179D02*
X118150433Y-58239635D01*
X118245442Y-58287709D01*
X118292832Y-58335556D01*
X118339995Y-58431021D01*
X118386702Y-58621722D01*
X118385563Y-58859815D01*
X118337033Y-59050061D01*
X118288959Y-59145070D01*
X118241113Y-59192461D01*
X118145648Y-59239624D01*
X118050411Y-59239168D01*
X117955402Y-59191094D01*
X117908011Y-59143247D01*
X117860848Y-59047783D01*
X117814141Y-58857081D01*
X117815280Y-58618988D01*
X117863810Y-58428742D01*
X117911884Y-58333733D01*
X117959731Y-58286342D01*
X118055196Y-58239179D01*
X118859925Y-59243041D02*
X119050399Y-59243953D01*
X119145864Y-59196790D01*
X119193711Y-59149399D01*
X119289631Y-59006999D01*
X119338161Y-58816753D01*
X119339984Y-58435805D01*
X119292821Y-58340340D01*
X119245430Y-58292494D01*
X119150421Y-58244420D01*
X118959947Y-58243508D01*
X118864482Y-58290671D01*
X118816636Y-58338062D01*
X118768562Y-58433071D01*
X118767423Y-58671164D01*
X118814585Y-58766628D01*
X118861976Y-58814475D01*
X118956985Y-58862549D01*
X119147459Y-58863460D01*
X119242924Y-58816297D01*
X119290770Y-58768907D01*
X119338845Y-58673898D01*
X119959936Y-58248293D02*
X120055173Y-58248749D01*
X120150182Y-58296823D01*
X120197572Y-58344669D01*
X120244735Y-58440134D01*
X120291442Y-58630836D01*
X120290303Y-58868928D01*
X120241773Y-59059175D01*
X120193699Y-59154184D01*
X120145853Y-59201574D01*
X120050388Y-59248737D01*
X119955151Y-59248282D01*
X119860142Y-59200207D01*
X119812751Y-59152361D01*
X119765588Y-59056896D01*
X119718881Y-58866194D01*
X119720020Y-58628102D01*
X119768550Y-58437856D01*
X119816624Y-58342847D01*
X119864471Y-58295456D01*
X119959936Y-58248293D01*
X121478943Y-59255572D02*
X121482133Y-58588913D01*
X121481677Y-58684150D02*
X121529524Y-58636760D01*
X121624988Y-58589597D01*
X121767844Y-58590280D01*
X121862853Y-58638355D01*
X121910016Y-58733819D01*
X121907510Y-59257623D01*
X121910016Y-58733819D02*
X121958090Y-58638810D01*
X122053555Y-58591648D01*
X122196410Y-58592331D01*
X122291420Y-58640405D01*
X122338582Y-58735870D01*
X122336076Y-59259674D01*
X122812261Y-59261952D02*
X122815451Y-58595293D01*
X122814995Y-58690530D02*
X122862842Y-58643139D01*
X122958306Y-58595976D01*
X123101162Y-58596660D01*
X123196171Y-58644734D01*
X123243334Y-58740199D01*
X123240828Y-59264003D01*
X123243334Y-58740199D02*
X123291408Y-58645190D01*
X123386873Y-58598027D01*
X123529728Y-58598711D01*
X123624738Y-58646785D01*
X123671900Y-58742250D01*
X123669394Y-59266053D01*
X121091333Y-60101347D02*
X119001333Y-60091347D01*
X121060000Y-66650000D02*
X121094139Y-59514933D01*
X118970000Y-66640000D02*
X119004139Y-59504933D01*
X119001333Y-60091347D02*
X120130630Y-59510323D01*
X119001333Y-60091347D02*
X120125018Y-60683151D01*
X121091333Y-60101347D02*
X119967648Y-59509543D01*
X121091333Y-60101347D02*
X119962036Y-60682371D01*
X169879761Y-117522380D02*
X169308333Y-117522380D01*
X169594047Y-117522380D02*
X169594047Y-116522380D01*
X169498809Y-116665238D01*
X169403571Y-116760476D01*
X169308333Y-116808095D01*
X170355952Y-117474761D02*
X170355952Y-117522380D01*
X170308333Y-117617619D01*
X170260714Y-117665238D01*
X170689285Y-116522380D02*
X171355952Y-116522380D01*
X170927380Y-117522380D01*
X171784523Y-117522380D02*
X171975000Y-117522380D01*
X172070238Y-117474761D01*
X172117857Y-117427142D01*
X172213095Y-117284285D01*
X172260714Y-117093809D01*
X172260714Y-116712857D01*
X172213095Y-116617619D01*
X172165476Y-116570000D01*
X172070238Y-116522380D01*
X171879761Y-116522380D01*
X171784523Y-116570000D01*
X171736904Y-116617619D01*
X171689285Y-116712857D01*
X171689285Y-116950952D01*
X171736904Y-117046190D01*
X171784523Y-117093809D01*
X171879761Y-117141428D01*
X172070238Y-117141428D01*
X172165476Y-117093809D01*
X172213095Y-117046190D01*
X172260714Y-116950952D01*
X172879761Y-116522380D02*
X172975000Y-116522380D01*
X173070238Y-116570000D01*
X173117857Y-116617619D01*
X173165476Y-116712857D01*
X173213095Y-116903333D01*
X173213095Y-117141428D01*
X173165476Y-117331904D01*
X173117857Y-117427142D01*
X173070238Y-117474761D01*
X172975000Y-117522380D01*
X172879761Y-117522380D01*
X172784523Y-117474761D01*
X172736904Y-117427142D01*
X172689285Y-117331904D01*
X172641666Y-117141428D01*
X172641666Y-116903333D01*
X172689285Y-116712857D01*
X172736904Y-116617619D01*
X172784523Y-116570000D01*
X172879761Y-116522380D01*
X174403571Y-117522380D02*
X174403571Y-116855714D01*
X174403571Y-116950952D02*
X174451190Y-116903333D01*
X174546428Y-116855714D01*
X174689285Y-116855714D01*
X174784523Y-116903333D01*
X174832142Y-116998571D01*
X174832142Y-117522380D01*
X174832142Y-116998571D02*
X174879761Y-116903333D01*
X174975000Y-116855714D01*
X175117857Y-116855714D01*
X175213095Y-116903333D01*
X175260714Y-116998571D01*
X175260714Y-117522380D01*
X175736904Y-117522380D02*
X175736904Y-116855714D01*
X175736904Y-116950952D02*
X175784523Y-116903333D01*
X175879761Y-116855714D01*
X176022619Y-116855714D01*
X176117857Y-116903333D01*
X176165476Y-116998571D01*
X176165476Y-117522380D01*
X176165476Y-116998571D02*
X176213095Y-116903333D01*
X176308333Y-116855714D01*
X176451190Y-116855714D01*
X176546428Y-116903333D01*
X176594047Y-116998571D01*
X176594047Y-117522380D01*
X172080000Y-115770000D02*
X173870000Y-115770000D01*
X172080000Y-112480000D02*
X172080000Y-116356421D01*
X173870000Y-112480000D02*
X173870000Y-116356421D01*
X173870000Y-115770000D02*
X172743496Y-116356421D01*
X173870000Y-115770000D02*
X172743496Y-115183579D01*
X172080000Y-115770000D02*
X173206504Y-116356421D01*
X172080000Y-115770000D02*
X173206504Y-115183579D01*
X116456173Y-85911960D02*
X116455983Y-85435770D01*
X115979773Y-85388341D01*
X116027411Y-85435941D01*
X116075068Y-85531160D01*
X116075164Y-85769255D01*
X116027583Y-85864513D01*
X115979983Y-85912151D01*
X115884764Y-85959808D01*
X115646668Y-85959903D01*
X115551411Y-85912322D01*
X115503773Y-85864722D01*
X115456116Y-85769503D01*
X115456021Y-85531408D01*
X115503602Y-85436151D01*
X115551202Y-85388512D01*
X116456439Y-86578627D02*
X116456478Y-86673865D01*
X116408897Y-86769122D01*
X116361297Y-86816760D01*
X116266078Y-86864417D01*
X116075620Y-86912112D01*
X115837525Y-86912208D01*
X115647030Y-86864665D01*
X115551773Y-86817084D01*
X115504135Y-86769484D01*
X115456478Y-86674265D01*
X115456440Y-86579027D01*
X115504021Y-86483769D01*
X115551621Y-86436131D01*
X115646840Y-86388474D01*
X115837297Y-86340779D01*
X116075392Y-86340684D01*
X116265887Y-86388227D01*
X116361144Y-86435808D01*
X116408782Y-86483408D01*
X116456439Y-86578627D01*
X115504382Y-87388531D02*
X115456763Y-87388550D01*
X115361506Y-87340969D01*
X115313868Y-87293369D01*
X116457010Y-88007198D02*
X116457049Y-88102436D01*
X116409468Y-88197693D01*
X116361868Y-88245332D01*
X116266648Y-88292989D01*
X116076191Y-88340684D01*
X115838096Y-88340779D01*
X115647601Y-88293236D01*
X115552344Y-88245655D01*
X115504706Y-88198055D01*
X115457049Y-88102836D01*
X115457011Y-88007598D01*
X115504592Y-87912341D01*
X115552192Y-87864703D01*
X115647411Y-87817046D01*
X115837868Y-87769350D01*
X116075963Y-87769255D01*
X116266458Y-87816798D01*
X116361715Y-87864379D01*
X116409353Y-87911979D01*
X116457010Y-88007198D01*
X116124153Y-89197808D02*
X115457486Y-89198074D01*
X116505010Y-88959560D02*
X115790629Y-88721750D01*
X115790877Y-89340798D01*
X116457772Y-89911960D02*
X116457810Y-90007198D01*
X116410229Y-90102455D01*
X116362629Y-90150093D01*
X116267410Y-90197750D01*
X116076953Y-90245446D01*
X115838857Y-90245541D01*
X115648362Y-90197998D01*
X115553105Y-90150417D01*
X115505467Y-90102817D01*
X115457810Y-90007598D01*
X115457772Y-89912360D01*
X115505353Y-89817103D01*
X115552953Y-89769464D01*
X115648172Y-89721807D01*
X115838629Y-89674112D01*
X116076724Y-89674017D01*
X116267219Y-89721560D01*
X116362477Y-89769141D01*
X116410115Y-89816741D01*
X116457772Y-89911960D01*
X115458381Y-91436169D02*
X116125047Y-91435903D01*
X116029809Y-91435941D02*
X116077447Y-91483541D01*
X116125105Y-91578760D01*
X116125162Y-91721617D01*
X116077581Y-91816874D01*
X115982362Y-91864531D01*
X115458552Y-91864740D01*
X115982362Y-91864531D02*
X116077619Y-91912112D01*
X116125276Y-92007331D01*
X116125333Y-92150188D01*
X116077752Y-92245445D01*
X115982533Y-92293102D01*
X115458723Y-92293312D01*
X115458914Y-92769502D02*
X116125580Y-92769236D01*
X116030342Y-92769274D02*
X116077980Y-92816874D01*
X116125637Y-92912093D01*
X116125695Y-93054950D01*
X116078114Y-93150207D01*
X115982895Y-93197864D01*
X115459085Y-93198074D01*
X115982895Y-93197864D02*
X116078152Y-93245445D01*
X116125809Y-93340664D01*
X116125866Y-93483521D01*
X116078285Y-93578779D01*
X115983066Y-93626436D01*
X115459256Y-93626645D01*
X117200001Y-64510707D02*
X117220001Y-114550707D01*
X118970000Y-64510000D02*
X116613580Y-64510942D01*
X118990000Y-114550000D02*
X116633580Y-114550942D01*
X117220001Y-114550707D02*
X116633130Y-113424438D01*
X117220001Y-114550707D02*
X117805971Y-113423969D01*
X117200001Y-64510707D02*
X116614031Y-65637445D01*
X117200001Y-64510707D02*
X117786872Y-65636976D01*
X143421552Y-61012380D02*
X142945361Y-61012380D01*
X142897742Y-61488571D01*
X142945361Y-61440952D01*
X143040600Y-61393333D01*
X143278695Y-61393333D01*
X143373933Y-61440952D01*
X143421552Y-61488571D01*
X143469171Y-61583809D01*
X143469171Y-61821904D01*
X143421552Y-61917142D01*
X143373933Y-61964761D01*
X143278695Y-62012380D01*
X143040600Y-62012380D01*
X142945361Y-61964761D01*
X142897742Y-61917142D01*
X144326314Y-61012380D02*
X144135838Y-61012380D01*
X144040600Y-61060000D01*
X143992980Y-61107619D01*
X143897742Y-61250476D01*
X143850123Y-61440952D01*
X143850123Y-61821904D01*
X143897742Y-61917142D01*
X143945361Y-61964761D01*
X144040600Y-62012380D01*
X144231076Y-62012380D01*
X144326314Y-61964761D01*
X144373933Y-61917142D01*
X144421552Y-61821904D01*
X144421552Y-61583809D01*
X144373933Y-61488571D01*
X144326314Y-61440952D01*
X144231076Y-61393333D01*
X144040600Y-61393333D01*
X143945361Y-61440952D01*
X143897742Y-61488571D01*
X143850123Y-61583809D01*
X144897742Y-61964761D02*
X144897742Y-62012380D01*
X144850123Y-62107619D01*
X144802504Y-62155238D01*
X145850123Y-62012380D02*
X145278695Y-62012380D01*
X145564409Y-62012380D02*
X145564409Y-61012380D01*
X145469171Y-61155238D01*
X145373933Y-61250476D01*
X145278695Y-61298095D01*
X146183457Y-61012380D02*
X146802504Y-61012380D01*
X146469171Y-61393333D01*
X146612028Y-61393333D01*
X146707266Y-61440952D01*
X146754885Y-61488571D01*
X146802504Y-61583809D01*
X146802504Y-61821904D01*
X146754885Y-61917142D01*
X146707266Y-61964761D01*
X146612028Y-62012380D01*
X146326314Y-62012380D01*
X146231076Y-61964761D01*
X146183457Y-61917142D01*
X147659647Y-61345714D02*
X147659647Y-62012380D01*
X147421552Y-60964761D02*
X147183457Y-61679047D01*
X147802504Y-61679047D01*
X148945361Y-62012380D02*
X148945361Y-61345714D01*
X148945361Y-61440952D02*
X148992980Y-61393333D01*
X149088219Y-61345714D01*
X149231076Y-61345714D01*
X149326314Y-61393333D01*
X149373933Y-61488571D01*
X149373933Y-62012380D01*
X149373933Y-61488571D02*
X149421552Y-61393333D01*
X149516790Y-61345714D01*
X149659647Y-61345714D01*
X149754885Y-61393333D01*
X149802504Y-61488571D01*
X149802504Y-62012380D01*
X150278695Y-62012380D02*
X150278695Y-61345714D01*
X150278695Y-61440952D02*
X150326314Y-61393333D01*
X150421552Y-61345714D01*
X150564409Y-61345714D01*
X150659647Y-61393333D01*
X150707266Y-61488571D01*
X150707266Y-62012380D01*
X150707266Y-61488571D02*
X150754885Y-61393333D01*
X150850123Y-61345714D01*
X150992980Y-61345714D01*
X151088219Y-61393333D01*
X151135838Y-61488571D01*
X151135838Y-62012380D01*
X118973600Y-62860000D02*
X175107600Y-62860000D01*
X118973600Y-64516000D02*
X118973600Y-62273579D01*
X175107600Y-64516000D02*
X175107600Y-62273579D01*
X175107600Y-62860000D02*
X173981096Y-63446421D01*
X175107600Y-62860000D02*
X173981096Y-62273579D01*
X118973600Y-62860000D02*
X120100104Y-63446421D01*
X118973600Y-62860000D02*
X120100104Y-62273579D01*
X143413834Y-120324039D02*
X142937644Y-120323573D01*
X142889558Y-120799716D01*
X142937224Y-120752144D01*
X143032509Y-120704618D01*
X143270604Y-120704851D01*
X143365795Y-120752564D01*
X143413368Y-120800229D01*
X143460893Y-120895514D01*
X143460660Y-121133609D01*
X143412948Y-121228801D01*
X143365282Y-121276373D01*
X143269997Y-121323899D01*
X143031902Y-121323666D01*
X142936711Y-121275953D01*
X142889139Y-121228288D01*
X144412854Y-121325018D02*
X143841426Y-121324458D01*
X144127140Y-121324738D02*
X144128119Y-120324739D01*
X144032741Y-120467502D01*
X143937410Y-120562647D01*
X143842125Y-120610173D01*
X144889091Y-121277865D02*
X144889044Y-121325484D01*
X144841332Y-121420676D01*
X144793666Y-121468248D01*
X145461032Y-120754616D02*
X145365841Y-120706904D01*
X145318268Y-120659238D01*
X145270743Y-120563953D01*
X145270789Y-120516334D01*
X145318502Y-120421143D01*
X145366167Y-120373570D01*
X145461452Y-120326045D01*
X145651928Y-120326231D01*
X145747120Y-120373943D01*
X145794692Y-120421609D01*
X145842218Y-120516894D01*
X145842171Y-120564513D01*
X145794459Y-120659704D01*
X145746793Y-120707277D01*
X145651508Y-120754802D01*
X145461032Y-120754616D01*
X145365748Y-120802142D01*
X145318082Y-120849714D01*
X145270370Y-120944905D01*
X145270183Y-121135381D01*
X145317709Y-121230666D01*
X145365281Y-121278332D01*
X145460473Y-121326044D01*
X145650949Y-121326231D01*
X145746233Y-121278705D01*
X145793899Y-121231133D01*
X145841611Y-121135941D01*
X145841798Y-120945465D01*
X145794272Y-120850180D01*
X145746700Y-120802515D01*
X145651508Y-120754802D01*
X146699547Y-120327257D02*
X146509071Y-120327071D01*
X146413786Y-120374596D01*
X146366120Y-120422169D01*
X146270742Y-120564933D01*
X146222937Y-120755362D01*
X146222564Y-121136314D01*
X146270089Y-121231599D01*
X146317662Y-121279265D01*
X146412853Y-121326977D01*
X146603329Y-121327163D01*
X146698614Y-121279638D01*
X146746280Y-121232065D01*
X146793992Y-121136874D01*
X146794225Y-120898779D01*
X146746699Y-120803494D01*
X146699127Y-120755828D01*
X146603936Y-120708116D01*
X146413459Y-120707930D01*
X146318175Y-120755455D01*
X146270509Y-120803028D01*
X146222797Y-120898219D01*
X147128118Y-120327677D02*
X147794784Y-120328330D01*
X147365234Y-121327910D01*
X148936661Y-121329449D02*
X148937314Y-120662782D01*
X148937221Y-120758021D02*
X148984887Y-120710448D01*
X149080171Y-120662922D01*
X149223029Y-120663062D01*
X149318220Y-120710775D01*
X149365746Y-120806059D01*
X149365233Y-121329869D01*
X149365746Y-120806059D02*
X149413458Y-120710868D01*
X149508743Y-120663342D01*
X149651600Y-120663482D01*
X149746791Y-120711194D01*
X149794317Y-120806479D01*
X149793804Y-121330288D01*
X150269994Y-121330755D02*
X150270647Y-120664088D01*
X150270554Y-120759326D02*
X150318219Y-120711754D01*
X150413504Y-120664228D01*
X150556361Y-120664368D01*
X150651553Y-120712081D01*
X150699078Y-120807365D01*
X150698565Y-121331174D01*
X150699078Y-120807365D02*
X150746791Y-120712174D01*
X150842075Y-120664648D01*
X150984932Y-120664788D01*
X151080124Y-120712500D01*
X151127650Y-120807785D01*
X151127137Y-121331594D01*
X172967017Y-119600604D02*
X121100217Y-119549804D01*
X172974000Y-112471200D02*
X172966443Y-120187024D01*
X121107200Y-112420400D02*
X121099643Y-120136224D01*
X121100217Y-119549804D02*
X122227295Y-118964487D01*
X121100217Y-119549804D02*
X122226146Y-120137328D01*
X172967017Y-119600604D02*
X171841088Y-119013080D01*
X172967017Y-119600604D02*
X171839939Y-120185921D01*
X183152927Y-85898895D02*
X182486261Y-85899186D01*
X183533776Y-85660633D02*
X182819386Y-85422850D01*
X182819656Y-86041897D01*
X183486697Y-86898749D02*
X183486489Y-86422559D01*
X183010278Y-86375147D01*
X183057918Y-86422746D01*
X183105578Y-86517963D01*
X183105682Y-86756058D01*
X183058105Y-86851317D01*
X183010507Y-86898957D01*
X182915289Y-86946618D01*
X182677194Y-86946721D01*
X182581935Y-86899144D01*
X182534295Y-86851546D01*
X182486635Y-86756328D01*
X182486531Y-86518233D01*
X182534108Y-86422974D01*
X182581707Y-86375334D01*
X182534545Y-87422974D02*
X182486926Y-87422995D01*
X182391667Y-87375417D01*
X182344027Y-87327819D01*
X183058603Y-87994174D02*
X183106181Y-87898915D01*
X183153779Y-87851275D01*
X183248997Y-87803615D01*
X183296616Y-87803594D01*
X183391874Y-87851172D01*
X183439514Y-87898770D01*
X183487175Y-87993987D01*
X183487258Y-88184463D01*
X183439680Y-88279722D01*
X183392082Y-88327362D01*
X183296865Y-88375023D01*
X183249246Y-88375043D01*
X183153987Y-88327466D01*
X183106347Y-88279868D01*
X183058687Y-88184650D01*
X183058603Y-87994174D01*
X183010943Y-87898957D01*
X182963303Y-87851359D01*
X182868044Y-87803781D01*
X182677568Y-87803864D01*
X182582351Y-87851525D01*
X182534752Y-87899165D01*
X182487175Y-87994423D01*
X182487258Y-88184900D01*
X182534919Y-88280117D01*
X182582558Y-88327715D01*
X182677817Y-88375293D01*
X182868294Y-88375210D01*
X182963511Y-88327549D01*
X183011109Y-88279909D01*
X183058687Y-88184650D01*
X183154382Y-89232228D02*
X182487715Y-89232519D01*
X183535230Y-88993966D02*
X182820841Y-88756183D01*
X182821111Y-89375230D01*
X183488027Y-89946368D02*
X183488068Y-90041606D01*
X183440491Y-90136865D01*
X183392893Y-90184505D01*
X183297675Y-90232165D01*
X183107220Y-90279867D01*
X182869125Y-90279971D01*
X182678628Y-90232435D01*
X182583369Y-90184858D01*
X182535729Y-90137260D01*
X182488068Y-90042042D01*
X182488027Y-89946804D01*
X182535604Y-89851545D01*
X182583203Y-89803906D01*
X182678420Y-89756245D01*
X182868875Y-89708543D01*
X183106970Y-89708439D01*
X183297467Y-89755975D01*
X183392726Y-89803552D01*
X183440366Y-89851151D01*
X183488027Y-89946368D01*
X182488692Y-91470614D02*
X183155358Y-91470323D01*
X183060120Y-91470364D02*
X183107760Y-91517963D01*
X183155421Y-91613180D01*
X183155483Y-91756037D01*
X183107905Y-91851296D01*
X183012688Y-91898956D01*
X182488879Y-91899185D01*
X183012688Y-91898956D02*
X183107947Y-91946534D01*
X183155608Y-92041751D01*
X183155670Y-92184608D01*
X183108092Y-92279867D01*
X183012875Y-92327528D01*
X182489066Y-92327756D01*
X182489273Y-92803947D02*
X183155940Y-92803656D01*
X183060702Y-92803697D02*
X183108342Y-92851296D01*
X183156002Y-92946513D01*
X183156065Y-93089370D01*
X183108487Y-93184629D01*
X183013270Y-93232290D01*
X182489460Y-93232518D01*
X183013270Y-93232290D02*
X183108529Y-93279867D01*
X183156189Y-93375084D01*
X183156252Y-93517942D01*
X183108674Y-93613200D01*
X183013457Y-93660861D01*
X182489647Y-93661090D01*
X181630242Y-66646222D02*
X181650242Y-112486222D01*
X172970000Y-66650000D02*
X182216663Y-66645966D01*
X172990000Y-112490000D02*
X182236663Y-112485966D01*
X181650242Y-112486222D02*
X181063330Y-111359974D01*
X181650242Y-112486222D02*
X182236171Y-111359462D01*
X181630242Y-66646222D02*
X181044313Y-67772982D01*
X181630242Y-66646222D02*
X182217154Y-67772470D01*
X159651819Y-98207580D02*
X159842295Y-98207580D01*
X159937533Y-98255200D01*
X160032771Y-98350438D01*
X160080390Y-98540914D01*
X160080390Y-98874247D01*
X160032771Y-99064723D01*
X159937533Y-99159961D01*
X159842295Y-99207580D01*
X159651819Y-99207580D01*
X159556580Y-99159961D01*
X159461342Y-99064723D01*
X159413723Y-98874247D01*
X159413723Y-98540914D01*
X159461342Y-98350438D01*
X159556580Y-98255200D01*
X159651819Y-98207580D01*
X160842295Y-98683771D02*
X160508961Y-98683771D01*
X160508961Y-99207580D02*
X160508961Y-98207580D01*
X160985152Y-98207580D01*
X161699438Y-98683771D02*
X161366104Y-98683771D01*
X161366104Y-99207580D02*
X161366104Y-98207580D01*
X161842295Y-98207580D01*
X166157352Y-98220280D02*
X166347828Y-98220280D01*
X166443066Y-98267900D01*
X166538304Y-98363138D01*
X166585923Y-98553614D01*
X166585923Y-98886947D01*
X166538304Y-99077423D01*
X166443066Y-99172661D01*
X166347828Y-99220280D01*
X166157352Y-99220280D01*
X166062114Y-99172661D01*
X165966876Y-99077423D01*
X165919257Y-98886947D01*
X165919257Y-98553614D01*
X165966876Y-98363138D01*
X166062114Y-98267900D01*
X166157352Y-98220280D01*
X167014495Y-99220280D02*
X167014495Y-98220280D01*
X167585923Y-99220280D01*
X167585923Y-98220280D01*
X158445961Y-66444880D02*
X158779295Y-67444880D01*
X159112628Y-66444880D01*
X159445961Y-67444880D02*
X159445961Y-66444880D01*
X159922152Y-67444880D02*
X159922152Y-66444880D01*
X160493580Y-67444880D01*
X160493580Y-66444880D01*
X160969771Y-67349642D02*
X161017390Y-67397261D01*
X160969771Y-67444880D01*
X160922152Y-67397261D01*
X160969771Y-67349642D01*
X160969771Y-67444880D01*
X160969771Y-66825833D02*
X161017390Y-66873452D01*
X160969771Y-66921071D01*
X160922152Y-66873452D01*
X160969771Y-66825833D01*
X160969771Y-66921071D01*
X162684057Y-66444880D02*
X162207866Y-66444880D01*
X162160247Y-66921071D01*
X162207866Y-66873452D01*
X162303104Y-66825833D01*
X162541200Y-66825833D01*
X162636438Y-66873452D01*
X162684057Y-66921071D01*
X162731676Y-67016309D01*
X162731676Y-67254404D01*
X162684057Y-67349642D01*
X162636438Y-67397261D01*
X162541200Y-67444880D01*
X162303104Y-67444880D01*
X162207866Y-67397261D01*
X162160247Y-67349642D01*
X163160247Y-67349642D02*
X163207866Y-67397261D01*
X163160247Y-67444880D01*
X163112628Y-67397261D01*
X163160247Y-67349642D01*
X163160247Y-67444880D01*
X164112628Y-66444880D02*
X163636438Y-66444880D01*
X163588819Y-66921071D01*
X163636438Y-66873452D01*
X163731676Y-66825833D01*
X163969771Y-66825833D01*
X164065009Y-66873452D01*
X164112628Y-66921071D01*
X164160247Y-67016309D01*
X164160247Y-67254404D01*
X164112628Y-67349642D01*
X164065009Y-67397261D01*
X163969771Y-67444880D01*
X163731676Y-67444880D01*
X163636438Y-67397261D01*
X163588819Y-67349642D01*
X164445961Y-66444880D02*
X164779295Y-67444880D01*
X165112628Y-66444880D01*
X166207866Y-67063928D02*
X166969771Y-67063928D01*
X168160247Y-66540119D02*
X168207866Y-66492500D01*
X168303104Y-66444880D01*
X168541200Y-66444880D01*
X168636438Y-66492500D01*
X168684057Y-66540119D01*
X168731676Y-66635357D01*
X168731676Y-66730595D01*
X168684057Y-66873452D01*
X168112628Y-67444880D01*
X168731676Y-67444880D01*
X169350723Y-66444880D02*
X169445961Y-66444880D01*
X169541200Y-66492500D01*
X169588819Y-66540119D01*
X169636438Y-66635357D01*
X169684057Y-66825833D01*
X169684057Y-67063928D01*
X169636438Y-67254404D01*
X169588819Y-67349642D01*
X169541200Y-67397261D01*
X169445961Y-67444880D01*
X169350723Y-67444880D01*
X169255485Y-67397261D01*
X169207866Y-67349642D01*
X169160247Y-67254404D01*
X169112628Y-67063928D01*
X169112628Y-66825833D01*
X169160247Y-66635357D01*
X169207866Y-66540119D01*
X169255485Y-66492500D01*
X169350723Y-66444880D01*
X169969771Y-66444880D02*
X170303104Y-67444880D01*
X170636438Y-66444880D01*
X128941723Y-112466380D02*
X128941723Y-111466380D01*
X129179819Y-111466380D01*
X129322676Y-111514000D01*
X129417914Y-111609238D01*
X129465533Y-111704476D01*
X129513152Y-111894952D01*
X129513152Y-112037809D01*
X129465533Y-112228285D01*
X129417914Y-112323523D01*
X129322676Y-112418761D01*
X129179819Y-112466380D01*
X128941723Y-112466380D01*
X130132200Y-111466380D02*
X130322676Y-111466380D01*
X130417914Y-111514000D01*
X130513152Y-111609238D01*
X130560771Y-111799714D01*
X130560771Y-112133047D01*
X130513152Y-112323523D01*
X130417914Y-112418761D01*
X130322676Y-112466380D01*
X130132200Y-112466380D01*
X130036961Y-112418761D01*
X129941723Y-112323523D01*
X129894104Y-112133047D01*
X129894104Y-111799714D01*
X129941723Y-111609238D01*
X130036961Y-111514000D01*
X130132200Y-111466380D01*
X130989342Y-111466380D02*
X130989342Y-112275904D01*
X131036961Y-112371142D01*
X131084580Y-112418761D01*
X131179819Y-112466380D01*
X131370295Y-112466380D01*
X131465533Y-112418761D01*
X131513152Y-112371142D01*
X131560771Y-112275904D01*
X131560771Y-111466380D01*
X131894104Y-111466380D02*
X132465533Y-111466380D01*
X132179819Y-112466380D02*
X132179819Y-111466380D01*
X125564995Y-111514000D02*
X125469757Y-111466380D01*
X125326900Y-111466380D01*
X125184042Y-111514000D01*
X125088804Y-111609238D01*
X125041185Y-111704476D01*
X124993566Y-111894952D01*
X124993566Y-112037809D01*
X125041185Y-112228285D01*
X125088804Y-112323523D01*
X125184042Y-112418761D01*
X125326900Y-112466380D01*
X125422138Y-112466380D01*
X125564995Y-112418761D01*
X125612614Y-112371142D01*
X125612614Y-112037809D01*
X125422138Y-112037809D01*
X126041185Y-112466380D02*
X126041185Y-111466380D01*
X126612614Y-112466380D01*
X126612614Y-111466380D01*
X127088804Y-112466380D02*
X127088804Y-111466380D01*
X127326900Y-111466380D01*
X127469757Y-111514000D01*
X127564995Y-111609238D01*
X127612614Y-111704476D01*
X127660233Y-111894952D01*
X127660233Y-112037809D01*
X127612614Y-112228285D01*
X127564995Y-112323523D01*
X127469757Y-112418761D01*
X127326900Y-112466380D01*
X127088804Y-112466380D01*
X133629566Y-111517180D02*
X133962900Y-112517180D01*
X134296233Y-111517180D01*
X135200995Y-112421942D02*
X135153376Y-112469561D01*
X135010519Y-112517180D01*
X134915280Y-112517180D01*
X134772423Y-112469561D01*
X134677185Y-112374323D01*
X134629566Y-112279085D01*
X134581947Y-112088609D01*
X134581947Y-111945752D01*
X134629566Y-111755276D01*
X134677185Y-111660038D01*
X134772423Y-111564800D01*
X134915280Y-111517180D01*
X135010519Y-111517180D01*
X135153376Y-111564800D01*
X135200995Y-111612419D01*
X136200995Y-112421942D02*
X136153376Y-112469561D01*
X136010519Y-112517180D01*
X135915280Y-112517180D01*
X135772423Y-112469561D01*
X135677185Y-112374323D01*
X135629566Y-112279085D01*
X135581947Y-112088609D01*
X135581947Y-111945752D01*
X135629566Y-111755276D01*
X135677185Y-111660038D01*
X135772423Y-111564800D01*
X135915280Y-111517180D01*
X136010519Y-111517180D01*
X136153376Y-111564800D01*
X136200995Y-111612419D01*
X121373995Y-107792900D02*
X121278757Y-107745280D01*
X121135900Y-107745280D01*
X120993042Y-107792900D01*
X120897804Y-107888138D01*
X120850185Y-107983376D01*
X120802566Y-108173852D01*
X120802566Y-108316709D01*
X120850185Y-108507185D01*
X120897804Y-108602423D01*
X120993042Y-108697661D01*
X121135900Y-108745280D01*
X121231138Y-108745280D01*
X121373995Y-108697661D01*
X121421614Y-108650042D01*
X121421614Y-108316709D01*
X121231138Y-108316709D01*
X121850185Y-108745280D02*
X121850185Y-107745280D01*
X122421614Y-108745280D01*
X122421614Y-107745280D01*
X122897804Y-108745280D02*
X122897804Y-107745280D01*
X123135900Y-107745280D01*
X123278757Y-107792900D01*
X123373995Y-107888138D01*
X123421614Y-107983376D01*
X123469233Y-108173852D01*
X123469233Y-108316709D01*
X123421614Y-108507185D01*
X123373995Y-108602423D01*
X123278757Y-108697661D01*
X123135900Y-108745280D01*
X122897804Y-108745280D01*
X124197619Y-102715714D02*
X125197619Y-102715714D01*
X125197619Y-102953809D01*
X125150000Y-103096666D01*
X125054761Y-103191904D01*
X124959523Y-103239523D01*
X124769047Y-103287142D01*
X124626190Y-103287142D01*
X124435714Y-103239523D01*
X124340476Y-103191904D01*
X124245238Y-103096666D01*
X124197619Y-102953809D01*
X124197619Y-102715714D01*
X124197619Y-104239523D02*
X124197619Y-103668095D01*
X124197619Y-103953809D02*
X125197619Y-103953809D01*
X125054761Y-103858571D01*
X124959523Y-103763333D01*
X124911904Y-103668095D01*
X124197619Y-105191904D02*
X124197619Y-104620476D01*
X124197619Y-104906190D02*
X125197619Y-104906190D01*
X125054761Y-104810952D01*
X124959523Y-104715714D01*
X124911904Y-104620476D01*
X124197619Y-99715714D02*
X125197619Y-99715714D01*
X125197619Y-99953809D01*
X125150000Y-100096666D01*
X125054761Y-100191904D01*
X124959523Y-100239523D01*
X124769047Y-100287142D01*
X124626190Y-100287142D01*
X124435714Y-100239523D01*
X124340476Y-100191904D01*
X124245238Y-100096666D01*
X124197619Y-99953809D01*
X124197619Y-99715714D01*
X124197619Y-101239523D02*
X124197619Y-100668095D01*
X124197619Y-100953809D02*
X125197619Y-100953809D01*
X125054761Y-100858571D01*
X124959523Y-100763333D01*
X124911904Y-100668095D01*
X125197619Y-101858571D02*
X125197619Y-101953809D01*
X125150000Y-102049047D01*
X125102380Y-102096666D01*
X125007142Y-102144285D01*
X124816666Y-102191904D01*
X124578571Y-102191904D01*
X124388095Y-102144285D01*
X124292857Y-102096666D01*
X124245238Y-102049047D01*
X124197619Y-101953809D01*
X124197619Y-101858571D01*
X124245238Y-101763333D01*
X124292857Y-101715714D01*
X124388095Y-101668095D01*
X124578571Y-101620476D01*
X124816666Y-101620476D01*
X125007142Y-101668095D01*
X125102380Y-101715714D01*
X125150000Y-101763333D01*
X125197619Y-101858571D01*
X124185419Y-97547204D02*
X125185419Y-97547204D01*
X125185419Y-97785300D01*
X125137800Y-97928157D01*
X125042561Y-98023395D01*
X124947323Y-98071014D01*
X124756847Y-98118633D01*
X124613990Y-98118633D01*
X124423514Y-98071014D01*
X124328276Y-98023395D01*
X124233038Y-97928157D01*
X124185419Y-97785300D01*
X124185419Y-97547204D01*
X124756847Y-98690061D02*
X124804466Y-98594823D01*
X124852085Y-98547204D01*
X124947323Y-98499585D01*
X124994942Y-98499585D01*
X125090180Y-98547204D01*
X125137800Y-98594823D01*
X125185419Y-98690061D01*
X125185419Y-98880538D01*
X125137800Y-98975776D01*
X125090180Y-99023395D01*
X124994942Y-99071014D01*
X124947323Y-99071014D01*
X124852085Y-99023395D01*
X124804466Y-98975776D01*
X124756847Y-98880538D01*
X124756847Y-98690061D01*
X124709228Y-98594823D01*
X124661609Y-98547204D01*
X124566371Y-98499585D01*
X124375895Y-98499585D01*
X124280657Y-98547204D01*
X124233038Y-98594823D01*
X124185419Y-98690061D01*
X124185419Y-98880538D01*
X124233038Y-98975776D01*
X124280657Y-99023395D01*
X124375895Y-99071014D01*
X124566371Y-99071014D01*
X124661609Y-99023395D01*
X124709228Y-98975776D01*
X124756847Y-98880538D01*
X124160019Y-95019904D02*
X125160019Y-95019904D01*
X125160019Y-95258000D01*
X125112400Y-95400857D01*
X125017161Y-95496095D01*
X124921923Y-95543714D01*
X124731447Y-95591333D01*
X124588590Y-95591333D01*
X124398114Y-95543714D01*
X124302876Y-95496095D01*
X124207638Y-95400857D01*
X124160019Y-95258000D01*
X124160019Y-95019904D01*
X125160019Y-95924666D02*
X125160019Y-96591333D01*
X124160019Y-96162761D01*
X124109219Y-92479904D02*
X125109219Y-92479904D01*
X125109219Y-92718000D01*
X125061600Y-92860857D01*
X124966361Y-92956095D01*
X124871123Y-93003714D01*
X124680647Y-93051333D01*
X124537790Y-93051333D01*
X124347314Y-93003714D01*
X124252076Y-92956095D01*
X124156838Y-92860857D01*
X124109219Y-92718000D01*
X124109219Y-92479904D01*
X125109219Y-93908476D02*
X125109219Y-93718000D01*
X125061600Y-93622761D01*
X125013980Y-93575142D01*
X124871123Y-93479904D01*
X124680647Y-93432285D01*
X124299695Y-93432285D01*
X124204457Y-93479904D01*
X124156838Y-93527523D01*
X124109219Y-93622761D01*
X124109219Y-93813238D01*
X124156838Y-93908476D01*
X124204457Y-93956095D01*
X124299695Y-94003714D01*
X124537790Y-94003714D01*
X124633028Y-93956095D01*
X124680647Y-93908476D01*
X124728266Y-93813238D01*
X124728266Y-93622761D01*
X124680647Y-93527523D01*
X124633028Y-93479904D01*
X124537790Y-93432285D01*
X124083819Y-90016104D02*
X125083819Y-90016104D01*
X125083819Y-90254200D01*
X125036200Y-90397057D01*
X124940961Y-90492295D01*
X124845723Y-90539914D01*
X124655247Y-90587533D01*
X124512390Y-90587533D01*
X124321914Y-90539914D01*
X124226676Y-90492295D01*
X124131438Y-90397057D01*
X124083819Y-90254200D01*
X124083819Y-90016104D01*
X125083819Y-91492295D02*
X125083819Y-91016104D01*
X124607628Y-90968485D01*
X124655247Y-91016104D01*
X124702866Y-91111342D01*
X124702866Y-91349438D01*
X124655247Y-91444676D01*
X124607628Y-91492295D01*
X124512390Y-91539914D01*
X124274295Y-91539914D01*
X124179057Y-91492295D01*
X124131438Y-91444676D01*
X124083819Y-91349438D01*
X124083819Y-91111342D01*
X124131438Y-91016104D01*
X124179057Y-90968485D01*
X123994919Y-87374504D02*
X124994919Y-87374504D01*
X124994919Y-87612600D01*
X124947300Y-87755457D01*
X124852061Y-87850695D01*
X124756823Y-87898314D01*
X124566347Y-87945933D01*
X124423490Y-87945933D01*
X124233014Y-87898314D01*
X124137776Y-87850695D01*
X124042538Y-87755457D01*
X123994919Y-87612600D01*
X123994919Y-87374504D01*
X124661585Y-88803076D02*
X123994919Y-88803076D01*
X125042538Y-88564980D02*
X124328252Y-88326885D01*
X124328252Y-88945933D01*
X123969519Y-84910704D02*
X124969519Y-84910704D01*
X124969519Y-85148800D01*
X124921900Y-85291657D01*
X124826661Y-85386895D01*
X124731423Y-85434514D01*
X124540947Y-85482133D01*
X124398090Y-85482133D01*
X124207614Y-85434514D01*
X124112376Y-85386895D01*
X124017138Y-85291657D01*
X123969519Y-85148800D01*
X123969519Y-84910704D01*
X124969519Y-85815466D02*
X124969519Y-86434514D01*
X124588566Y-86101180D01*
X124588566Y-86244038D01*
X124540947Y-86339276D01*
X124493328Y-86386895D01*
X124398090Y-86434514D01*
X124159995Y-86434514D01*
X124064757Y-86386895D01*
X124017138Y-86339276D01*
X123969519Y-86244038D01*
X123969519Y-85958323D01*
X124017138Y-85863085D01*
X124064757Y-85815466D01*
X125033019Y-82035780D02*
X125033019Y-82654828D01*
X124652066Y-82321495D01*
X124652066Y-82464352D01*
X124604447Y-82559590D01*
X124556828Y-82607209D01*
X124461590Y-82654828D01*
X124223495Y-82654828D01*
X124128257Y-82607209D01*
X124080638Y-82559590D01*
X124033019Y-82464352D01*
X124033019Y-82178638D01*
X124080638Y-82083400D01*
X124128257Y-82035780D01*
X124128257Y-83083400D02*
X124080638Y-83131019D01*
X124033019Y-83083400D01*
X124080638Y-83035780D01*
X124128257Y-83083400D01*
X124033019Y-83083400D01*
X125033019Y-83464352D02*
X125033019Y-84083400D01*
X124652066Y-83750066D01*
X124652066Y-83892923D01*
X124604447Y-83988161D01*
X124556828Y-84035780D01*
X124461590Y-84083400D01*
X124223495Y-84083400D01*
X124128257Y-84035780D01*
X124080638Y-83988161D01*
X124033019Y-83892923D01*
X124033019Y-83607209D01*
X124080638Y-83511971D01*
X124128257Y-83464352D01*
X125033019Y-80933895D02*
X125033019Y-80457704D01*
X124556828Y-80410085D01*
X124604447Y-80457704D01*
X124652066Y-80552942D01*
X124652066Y-80791038D01*
X124604447Y-80886276D01*
X124556828Y-80933895D01*
X124461590Y-80981514D01*
X124223495Y-80981514D01*
X124128257Y-80933895D01*
X124080638Y-80886276D01*
X124033019Y-80791038D01*
X124033019Y-80552942D01*
X124080638Y-80457704D01*
X124128257Y-80410085D01*
X169400600Y-107111704D02*
X169352980Y-107206942D01*
X169352980Y-107349800D01*
X169400600Y-107492657D01*
X169495838Y-107587895D01*
X169591076Y-107635514D01*
X169781552Y-107683133D01*
X169924409Y-107683133D01*
X170114885Y-107635514D01*
X170210123Y-107587895D01*
X170305361Y-107492657D01*
X170352980Y-107349800D01*
X170352980Y-107254561D01*
X170305361Y-107111704D01*
X170257742Y-107064085D01*
X169924409Y-107064085D01*
X169924409Y-107254561D01*
X170352980Y-106635514D02*
X169352980Y-106635514D01*
X170352980Y-106064085D01*
X169352980Y-106064085D01*
X170352980Y-105587895D02*
X169352980Y-105587895D01*
X169352980Y-105349800D01*
X169400600Y-105206942D01*
X169495838Y-105111704D01*
X169591076Y-105064085D01*
X169781552Y-105016466D01*
X169924409Y-105016466D01*
X170114885Y-105064085D01*
X170210123Y-105111704D01*
X170305361Y-105206942D01*
X170352980Y-105349800D01*
X170352980Y-105587895D01*
X169965666Y-104117685D02*
X169965666Y-103641495D01*
X170251380Y-104212923D02*
X169251380Y-103879590D01*
X170251380Y-103546257D01*
X169251380Y-103022447D02*
X169251380Y-102927209D01*
X169299000Y-102831971D01*
X169346619Y-102784352D01*
X169441857Y-102736733D01*
X169632333Y-102689114D01*
X169870428Y-102689114D01*
X170060904Y-102736733D01*
X170156142Y-102784352D01*
X170203761Y-102831971D01*
X170251380Y-102927209D01*
X170251380Y-103022447D01*
X170203761Y-103117685D01*
X170156142Y-103165304D01*
X170060904Y-103212923D01*
X169870428Y-103260542D01*
X169632333Y-103260542D01*
X169441857Y-103212923D01*
X169346619Y-103165304D01*
X169299000Y-103117685D01*
X169251380Y-103022447D01*
X169927566Y-101590385D02*
X169927566Y-101114195D01*
X170213280Y-101685623D02*
X169213280Y-101352290D01*
X170213280Y-101018957D01*
X170213280Y-100161814D02*
X170213280Y-100733242D01*
X170213280Y-100447528D02*
X169213280Y-100447528D01*
X169356138Y-100542766D01*
X169451376Y-100638004D01*
X169498995Y-100733242D01*
X169965666Y-99088485D02*
X169965666Y-98612295D01*
X170251380Y-99183723D02*
X169251380Y-98850390D01*
X170251380Y-98517057D01*
X169346619Y-98231342D02*
X169299000Y-98183723D01*
X169251380Y-98088485D01*
X169251380Y-97850390D01*
X169299000Y-97755152D01*
X169346619Y-97707533D01*
X169441857Y-97659914D01*
X169537095Y-97659914D01*
X169679952Y-97707533D01*
X170251380Y-98278961D01*
X170251380Y-97659914D01*
X169927566Y-96611985D02*
X169927566Y-96135795D01*
X170213280Y-96707223D02*
X169213280Y-96373890D01*
X170213280Y-96040557D01*
X169213280Y-95802461D02*
X169213280Y-95183414D01*
X169594233Y-95516747D01*
X169594233Y-95373890D01*
X169641852Y-95278652D01*
X169689471Y-95231033D01*
X169784709Y-95183414D01*
X170022804Y-95183414D01*
X170118042Y-95231033D01*
X170165661Y-95278652D01*
X170213280Y-95373890D01*
X170213280Y-95659604D01*
X170165661Y-95754842D01*
X170118042Y-95802461D01*
X169864066Y-93995785D02*
X169864066Y-93519595D01*
X170149780Y-94091023D02*
X169149780Y-93757690D01*
X170149780Y-93424357D01*
X169483114Y-92662452D02*
X170149780Y-92662452D01*
X169102161Y-92900547D02*
X169816447Y-93138642D01*
X169816447Y-92519595D01*
X169851366Y-91481185D02*
X169851366Y-91004995D01*
X170137080Y-91576423D02*
X169137080Y-91243090D01*
X170137080Y-90909757D01*
X169137080Y-90100233D02*
X169137080Y-90576423D01*
X169613271Y-90624042D01*
X169565652Y-90576423D01*
X169518033Y-90481185D01*
X169518033Y-90243090D01*
X169565652Y-90147852D01*
X169613271Y-90100233D01*
X169708509Y-90052614D01*
X169946604Y-90052614D01*
X170041842Y-90100233D01*
X170089461Y-90147852D01*
X170137080Y-90243090D01*
X170137080Y-90481185D01*
X170089461Y-90576423D01*
X170041842Y-90624042D01*
X169825966Y-88839585D02*
X169825966Y-88363395D01*
X170111680Y-88934823D02*
X169111680Y-88601490D01*
X170111680Y-88268157D01*
X169111680Y-87506252D02*
X169111680Y-87696728D01*
X169159300Y-87791966D01*
X169206919Y-87839585D01*
X169349776Y-87934823D01*
X169540252Y-87982442D01*
X169921204Y-87982442D01*
X170016442Y-87934823D01*
X170064061Y-87887204D01*
X170111680Y-87791966D01*
X170111680Y-87601490D01*
X170064061Y-87506252D01*
X170016442Y-87458633D01*
X169921204Y-87411014D01*
X169683109Y-87411014D01*
X169587871Y-87458633D01*
X169540252Y-87506252D01*
X169492633Y-87601490D01*
X169492633Y-87791966D01*
X169540252Y-87887204D01*
X169587871Y-87934823D01*
X169683109Y-87982442D01*
X169851366Y-86375785D02*
X169851366Y-85899595D01*
X170137080Y-86471023D02*
X169137080Y-86137690D01*
X170137080Y-85804357D01*
X169137080Y-85566261D02*
X169137080Y-84899595D01*
X170137080Y-85328166D01*
X169175180Y-84092919D02*
X169175180Y-83473871D01*
X169556133Y-83807204D01*
X169556133Y-83664347D01*
X169603752Y-83569109D01*
X169651371Y-83521490D01*
X169746609Y-83473871D01*
X169984704Y-83473871D01*
X170079942Y-83521490D01*
X170127561Y-83569109D01*
X170175180Y-83664347D01*
X170175180Y-83950061D01*
X170127561Y-84045300D01*
X170079942Y-84092919D01*
X170079942Y-83045300D02*
X170127561Y-82997680D01*
X170175180Y-83045300D01*
X170127561Y-83092919D01*
X170079942Y-83045300D01*
X170175180Y-83045300D01*
X169175180Y-82664347D02*
X169175180Y-82045300D01*
X169556133Y-82378633D01*
X169556133Y-82235776D01*
X169603752Y-82140538D01*
X169651371Y-82092919D01*
X169746609Y-82045300D01*
X169984704Y-82045300D01*
X170079942Y-82092919D01*
X170127561Y-82140538D01*
X170175180Y-82235776D01*
X170175180Y-82521490D01*
X170127561Y-82616728D01*
X170079942Y-82664347D01*
X169187880Y-80203704D02*
X169187880Y-80679895D01*
X169664071Y-80727514D01*
X169616452Y-80679895D01*
X169568833Y-80584657D01*
X169568833Y-80346561D01*
X169616452Y-80251323D01*
X169664071Y-80203704D01*
X169759309Y-80156085D01*
X169997404Y-80156085D01*
X170092642Y-80203704D01*
X170140261Y-80251323D01*
X170187880Y-80346561D01*
X170187880Y-80584657D01*
X170140261Y-80679895D01*
X170092642Y-80727514D01*
D11*
X122123200Y-79238800D02*
X123453200Y-79238800D01*
X123453200Y-79238800D02*
X123453200Y-80568800D01*
X123453200Y-81838800D02*
X123453200Y-107298800D01*
X120793200Y-107298800D02*
X123453200Y-107298800D01*
X120793200Y-81838800D02*
X120793200Y-107298800D01*
X120793200Y-81838800D02*
X123453200Y-81838800D01*
X171907200Y-79238800D02*
X173237200Y-79238800D01*
X173237200Y-79238800D02*
X173237200Y-80568800D01*
X173237200Y-81838800D02*
X173237200Y-107298800D01*
X170577200Y-107298800D02*
X173237200Y-107298800D01*
X170577200Y-81838800D02*
X170577200Y-107298800D01*
X170577200Y-81838800D02*
X173237200Y-81838800D01*
X149792200Y-84737900D02*
X148142200Y-84737900D01*
X149792200Y-102637900D02*
X149792200Y-84737900D01*
X144492200Y-102637900D02*
X149792200Y-102637900D01*
X144492200Y-84737900D02*
X144492200Y-102637900D01*
X146142200Y-84737900D02*
X144492200Y-84737900D01*
X148142200Y-84737900D02*
G75*
G02X146142200Y-84737900I-1000000J0D01*
G01*
X159078400Y-92871200D02*
X160078400Y-92871200D01*
X159078400Y-93871200D02*
X159078400Y-92871200D01*
X159378400Y-96871200D02*
X159378400Y-93171200D01*
X160258400Y-96871200D02*
X159378400Y-96871200D01*
X162758400Y-96871200D02*
X162198400Y-96871200D01*
X165248400Y-96871200D02*
X164698400Y-96871200D01*
X168078400Y-96871200D02*
X167208400Y-96871200D01*
X168078400Y-93171200D02*
X168078400Y-96871200D01*
X167198400Y-93171200D02*
X168078400Y-93171200D01*
X164698400Y-93171200D02*
X165258400Y-93171200D01*
X162228400Y-93171200D02*
X162758400Y-93171200D01*
X159378400Y-93171200D02*
X160228400Y-93171200D01*
X159512000Y-73933700D02*
X159512000Y-71393700D01*
X162052000Y-73933700D02*
X162052000Y-71393700D01*
X164592000Y-73933700D02*
X164592000Y-71393700D01*
X167132000Y-73933700D02*
X167132000Y-71393700D01*
X158202000Y-89823700D02*
X158202000Y-73933700D01*
X168442000Y-89823700D02*
X168442000Y-73933700D01*
X168442000Y-89823700D02*
X158202000Y-89823700D01*
X168442000Y-73933700D02*
X158202000Y-73933700D01*
X143923000Y-107075300D02*
X143923000Y-107405300D01*
X150463000Y-107075300D02*
X143923000Y-107075300D01*
X150463000Y-107405300D02*
X150463000Y-107075300D01*
X143923000Y-109815300D02*
X143923000Y-109485300D01*
X150463000Y-109815300D02*
X143923000Y-109815300D01*
X150463000Y-109485300D02*
X150463000Y-109815300D01*
X152656600Y-79671000D02*
X150056600Y-79671000D01*
X152656600Y-64971000D02*
X152656600Y-79671000D01*
X143456600Y-79671000D02*
X143456600Y-77771000D01*
X146156600Y-79671000D02*
X143456600Y-79671000D01*
X143456600Y-64971000D02*
X152656600Y-64971000D01*
X143456600Y-73771000D02*
X143456600Y-64971000D01*
X152856600Y-78821000D02*
X152856600Y-79871000D01*
X151806600Y-79871000D02*
X152856600Y-79871000D01*
X124752400Y-110935600D02*
X126252400Y-110935600D01*
X124752400Y-109195600D02*
X124752400Y-110935600D01*
X136312400Y-103575600D02*
X136312400Y-110695600D01*
X124992400Y-103575600D02*
X124992400Y-110695600D01*
X124992400Y-110695600D02*
X136312400Y-110695600D01*
X124992400Y-103575600D02*
X136312400Y-103575600D01*
X124992400Y-109135600D02*
X136312400Y-109135600D01*
X135707400Y-107035600D02*
G75*
G03X135707400Y-107035600I-1555000J0D01*
G01*
X132207400Y-107035600D02*
G75*
G03X132207400Y-107035600I-1555000J0D01*
G01*
X127179411Y-108591092D02*
G75*
G02X126544400Y-108467600I-27011J1555492D01*
G01*
X125720291Y-107643342D02*
G75*
G02X125720400Y-106427600I1432109J607742D01*
G01*
X126544658Y-105603491D02*
G75*
G02X127760400Y-105603600I607742J-1432109D01*
G01*
X128584509Y-106427858D02*
G75*
G02X128584400Y-107643600I-1432109J-607742D01*
G01*
X127759987Y-108466985D02*
G75*
G02X127152400Y-108590600I-607587J1431385D01*
G01*
X134777600Y-74788400D02*
G75*
G03X134777600Y-74788400I-4120000J0D01*
G01*
X134737600Y-74788400D02*
X126577600Y-74788400D01*
X134737600Y-74828400D02*
X126577600Y-74828400D01*
X134737600Y-74868400D02*
X126577600Y-74868400D01*
X134736600Y-74908400D02*
X126578600Y-74908400D01*
X134734600Y-74948400D02*
X126580600Y-74948400D01*
X134733600Y-74988400D02*
X126581600Y-74988400D01*
X134731600Y-75028400D02*
X126583600Y-75028400D01*
X134728600Y-75068400D02*
X126586600Y-75068400D01*
X134725600Y-75108400D02*
X126589600Y-75108400D01*
X134722600Y-75148400D02*
X126592600Y-75148400D01*
X134718600Y-75188400D02*
X126596600Y-75188400D01*
X134714600Y-75228400D02*
X126600600Y-75228400D01*
X134709600Y-75268400D02*
X126605600Y-75268400D01*
X134705600Y-75308400D02*
X126609600Y-75308400D01*
X134699600Y-75348400D02*
X126615600Y-75348400D01*
X134694600Y-75388400D02*
X126620600Y-75388400D01*
X134687600Y-75428400D02*
X126627600Y-75428400D01*
X134681600Y-75468400D02*
X126633600Y-75468400D01*
X134674600Y-75509400D02*
X126640600Y-75509400D01*
X134667600Y-75549400D02*
X126647600Y-75549400D01*
X134659600Y-75589400D02*
X126655600Y-75589400D01*
X134651600Y-75629400D02*
X126663600Y-75629400D01*
X134642600Y-75669400D02*
X126672600Y-75669400D01*
X134633600Y-75709400D02*
X126681600Y-75709400D01*
X134624600Y-75749400D02*
X126690600Y-75749400D01*
X134614600Y-75789400D02*
X126700600Y-75789400D01*
X134604600Y-75829400D02*
X126710600Y-75829400D01*
X134593600Y-75869400D02*
X126721600Y-75869400D01*
X134582600Y-75909400D02*
X126732600Y-75909400D01*
X134571600Y-75949400D02*
X126743600Y-75949400D01*
X134559600Y-75989400D02*
X126755600Y-75989400D01*
X134546600Y-76029400D02*
X126768600Y-76029400D01*
X134534600Y-76069400D02*
X126780600Y-76069400D01*
X134520600Y-76109400D02*
X126794600Y-76109400D01*
X134507600Y-76149400D02*
X126807600Y-76149400D01*
X134492600Y-76189400D02*
X126822600Y-76189400D01*
X134478600Y-76229400D02*
X126836600Y-76229400D01*
X134462600Y-76269400D02*
X131697600Y-76269400D01*
X129617600Y-76269400D02*
X126852600Y-76269400D01*
X134447600Y-76309400D02*
X131697600Y-76309400D01*
X129617600Y-76309400D02*
X126867600Y-76309400D01*
X134431600Y-76349400D02*
X131697600Y-76349400D01*
X129617600Y-76349400D02*
X126883600Y-76349400D01*
X134414600Y-76389400D02*
X131697600Y-76389400D01*
X129617600Y-76389400D02*
X126900600Y-76389400D01*
X134397600Y-76429400D02*
X131697600Y-76429400D01*
X129617600Y-76429400D02*
X126917600Y-76429400D01*
X134379600Y-76469400D02*
X131697600Y-76469400D01*
X129617600Y-76469400D02*
X126935600Y-76469400D01*
X134361600Y-76509400D02*
X131697600Y-76509400D01*
X129617600Y-76509400D02*
X126953600Y-76509400D01*
X134343600Y-76549400D02*
X131697600Y-76549400D01*
X129617600Y-76549400D02*
X126971600Y-76549400D01*
X134323600Y-76589400D02*
X131697600Y-76589400D01*
X129617600Y-76589400D02*
X126991600Y-76589400D01*
X134304600Y-76629400D02*
X131697600Y-76629400D01*
X129617600Y-76629400D02*
X127010600Y-76629400D01*
X134284600Y-76669400D02*
X131697600Y-76669400D01*
X129617600Y-76669400D02*
X127030600Y-76669400D01*
X134263600Y-76709400D02*
X131697600Y-76709400D01*
X129617600Y-76709400D02*
X127051600Y-76709400D01*
X134241600Y-76749400D02*
X131697600Y-76749400D01*
X129617600Y-76749400D02*
X127073600Y-76749400D01*
X134219600Y-76789400D02*
X131697600Y-76789400D01*
X129617600Y-76789400D02*
X127095600Y-76789400D01*
X134197600Y-76829400D02*
X131697600Y-76829400D01*
X129617600Y-76829400D02*
X127117600Y-76829400D01*
X134174600Y-76869400D02*
X131697600Y-76869400D01*
X129617600Y-76869400D02*
X127140600Y-76869400D01*
X134150600Y-76909400D02*
X131697600Y-76909400D01*
X129617600Y-76909400D02*
X127164600Y-76909400D01*
X134126600Y-76949400D02*
X131697600Y-76949400D01*
X129617600Y-76949400D02*
X127188600Y-76949400D01*
X134101600Y-76989400D02*
X131697600Y-76989400D01*
X129617600Y-76989400D02*
X127213600Y-76989400D01*
X134075600Y-77029400D02*
X131697600Y-77029400D01*
X129617600Y-77029400D02*
X127239600Y-77029400D01*
X134049600Y-77069400D02*
X131697600Y-77069400D01*
X129617600Y-77069400D02*
X127265600Y-77069400D01*
X134022600Y-77109400D02*
X131697600Y-77109400D01*
X129617600Y-77109400D02*
X127292600Y-77109400D01*
X133995600Y-77149400D02*
X131697600Y-77149400D01*
X129617600Y-77149400D02*
X127319600Y-77149400D01*
X133966600Y-77189400D02*
X131697600Y-77189400D01*
X129617600Y-77189400D02*
X127348600Y-77189400D01*
X133937600Y-77229400D02*
X131697600Y-77229400D01*
X129617600Y-77229400D02*
X127377600Y-77229400D01*
X133907600Y-77269400D02*
X131697600Y-77269400D01*
X129617600Y-77269400D02*
X127407600Y-77269400D01*
X133877600Y-77309400D02*
X131697600Y-77309400D01*
X129617600Y-77309400D02*
X127437600Y-77309400D01*
X133846600Y-77349400D02*
X131697600Y-77349400D01*
X129617600Y-77349400D02*
X127468600Y-77349400D01*
X133813600Y-77389400D02*
X131697600Y-77389400D01*
X129617600Y-77389400D02*
X127501600Y-77389400D01*
X133781600Y-77429400D02*
X131697600Y-77429400D01*
X129617600Y-77429400D02*
X127533600Y-77429400D01*
X133747600Y-77469400D02*
X131697600Y-77469400D01*
X129617600Y-77469400D02*
X127567600Y-77469400D01*
X133712600Y-77509400D02*
X131697600Y-77509400D01*
X129617600Y-77509400D02*
X127602600Y-77509400D01*
X133676600Y-77549400D02*
X131697600Y-77549400D01*
X129617600Y-77549400D02*
X127638600Y-77549400D01*
X133640600Y-77589400D02*
X131697600Y-77589400D01*
X129617600Y-77589400D02*
X127674600Y-77589400D01*
X133602600Y-77629400D02*
X131697600Y-77629400D01*
X129617600Y-77629400D02*
X127712600Y-77629400D01*
X133564600Y-77669400D02*
X131697600Y-77669400D01*
X129617600Y-77669400D02*
X127750600Y-77669400D01*
X133524600Y-77709400D02*
X131697600Y-77709400D01*
X129617600Y-77709400D02*
X127790600Y-77709400D01*
X133483600Y-77749400D02*
X131697600Y-77749400D01*
X129617600Y-77749400D02*
X127831600Y-77749400D01*
X133441600Y-77789400D02*
X131697600Y-77789400D01*
X129617600Y-77789400D02*
X127873600Y-77789400D01*
X133398600Y-77829400D02*
X131697600Y-77829400D01*
X129617600Y-77829400D02*
X127916600Y-77829400D01*
X133354600Y-77869400D02*
X131697600Y-77869400D01*
X129617600Y-77869400D02*
X127960600Y-77869400D01*
X133308600Y-77909400D02*
X131697600Y-77909400D01*
X129617600Y-77909400D02*
X128006600Y-77909400D01*
X133261600Y-77949400D02*
X131697600Y-77949400D01*
X129617600Y-77949400D02*
X128053600Y-77949400D01*
X133213600Y-77989400D02*
X131697600Y-77989400D01*
X129617600Y-77989400D02*
X128101600Y-77989400D01*
X133162600Y-78029400D02*
X131697600Y-78029400D01*
X129617600Y-78029400D02*
X128152600Y-78029400D01*
X133111600Y-78069400D02*
X131697600Y-78069400D01*
X129617600Y-78069400D02*
X128203600Y-78069400D01*
X133057600Y-78109400D02*
X131697600Y-78109400D01*
X129617600Y-78109400D02*
X128257600Y-78109400D01*
X133002600Y-78149400D02*
X131697600Y-78149400D01*
X129617600Y-78149400D02*
X128312600Y-78149400D01*
X132944600Y-78189400D02*
X131697600Y-78189400D01*
X129617600Y-78189400D02*
X128370600Y-78189400D01*
X132885600Y-78229400D02*
X131697600Y-78229400D01*
X129617600Y-78229400D02*
X128429600Y-78229400D01*
X132823600Y-78269400D02*
X131697600Y-78269400D01*
X129617600Y-78269400D02*
X128491600Y-78269400D01*
X132759600Y-78309400D02*
X131697600Y-78309400D01*
X129617600Y-78309400D02*
X128555600Y-78309400D01*
X132691600Y-78349400D02*
X128623600Y-78349400D01*
X132621600Y-78389400D02*
X128693600Y-78389400D01*
X132547600Y-78429400D02*
X128767600Y-78429400D01*
X132470600Y-78469400D02*
X128844600Y-78469400D01*
X132388600Y-78509400D02*
X128926600Y-78509400D01*
X132302600Y-78549400D02*
X129012600Y-78549400D01*
X132209600Y-78589400D02*
X129105600Y-78589400D01*
X132110600Y-78629400D02*
X129204600Y-78629400D01*
X132003600Y-78669400D02*
X129311600Y-78669400D01*
X131886600Y-78709400D02*
X129428600Y-78709400D01*
X131755600Y-78749400D02*
X129559600Y-78749400D01*
X131605600Y-78789400D02*
X129709600Y-78789400D01*
X131425600Y-78829400D02*
X129889600Y-78829400D01*
X131190600Y-78869400D02*
X130124600Y-78869400D01*
X132972600Y-70378702D02*
X132972600Y-71178702D01*
X133372600Y-70778702D02*
X132572600Y-70778702D01*
X168082898Y-108531400D02*
X168082898Y-107731400D01*
X168482898Y-108131400D02*
X167682898Y-108131400D01*
X159992200Y-106349400D02*
X159992200Y-105283400D01*
X160032200Y-106584400D02*
X160032200Y-105048400D01*
X160072200Y-106764400D02*
X160072200Y-104868400D01*
X160112200Y-106914400D02*
X160112200Y-104718400D01*
X160152200Y-107045400D02*
X160152200Y-104587400D01*
X160192200Y-107162400D02*
X160192200Y-104470400D01*
X160232200Y-107269400D02*
X160232200Y-104363400D01*
X160272200Y-107368400D02*
X160272200Y-104264400D01*
X160312200Y-107461400D02*
X160312200Y-104171400D01*
X160352200Y-107547400D02*
X160352200Y-104085400D01*
X160392200Y-107629400D02*
X160392200Y-104003400D01*
X160432200Y-107706400D02*
X160432200Y-103926400D01*
X160472200Y-107780400D02*
X160472200Y-103852400D01*
X160512200Y-107850400D02*
X160512200Y-103782400D01*
X160552200Y-104776400D02*
X160552200Y-103714400D01*
X160552200Y-107918400D02*
X160552200Y-106856400D01*
X160592200Y-104776400D02*
X160592200Y-103650400D01*
X160592200Y-107982400D02*
X160592200Y-106856400D01*
X160632200Y-104776400D02*
X160632200Y-103588400D01*
X160632200Y-108044400D02*
X160632200Y-106856400D01*
X160672200Y-104776400D02*
X160672200Y-103529400D01*
X160672200Y-108103400D02*
X160672200Y-106856400D01*
X160712200Y-104776400D02*
X160712200Y-103471400D01*
X160712200Y-108161400D02*
X160712200Y-106856400D01*
X160752200Y-104776400D02*
X160752200Y-103416400D01*
X160752200Y-108216400D02*
X160752200Y-106856400D01*
X160792200Y-104776400D02*
X160792200Y-103362400D01*
X160792200Y-108270400D02*
X160792200Y-106856400D01*
X160832200Y-104776400D02*
X160832200Y-103311400D01*
X160832200Y-108321400D02*
X160832200Y-106856400D01*
X160872200Y-104776400D02*
X160872200Y-103260400D01*
X160872200Y-108372400D02*
X160872200Y-106856400D01*
X160912200Y-104776400D02*
X160912200Y-103212400D01*
X160912200Y-108420400D02*
X160912200Y-106856400D01*
X160952200Y-104776400D02*
X160952200Y-103165400D01*
X160952200Y-108467400D02*
X160952200Y-106856400D01*
X160992200Y-104776400D02*
X160992200Y-103119400D01*
X160992200Y-108513400D02*
X160992200Y-106856400D01*
X161032200Y-104776400D02*
X161032200Y-103075400D01*
X161032200Y-108557400D02*
X161032200Y-106856400D01*
X161072200Y-104776400D02*
X161072200Y-103032400D01*
X161072200Y-108600400D02*
X161072200Y-106856400D01*
X161112200Y-104776400D02*
X161112200Y-102990400D01*
X161112200Y-108642400D02*
X161112200Y-106856400D01*
X161152200Y-104776400D02*
X161152200Y-102949400D01*
X161152200Y-108683400D02*
X161152200Y-106856400D01*
X161192200Y-104776400D02*
X161192200Y-102909400D01*
X161192200Y-108723400D02*
X161192200Y-106856400D01*
X161232200Y-104776400D02*
X161232200Y-102871400D01*
X161232200Y-108761400D02*
X161232200Y-106856400D01*
X161272200Y-104776400D02*
X161272200Y-102833400D01*
X161272200Y-108799400D02*
X161272200Y-106856400D01*
X161312200Y-104776400D02*
X161312200Y-102797400D01*
X161312200Y-108835400D02*
X161312200Y-106856400D01*
X161352200Y-104776400D02*
X161352200Y-102761400D01*
X161352200Y-108871400D02*
X161352200Y-106856400D01*
X161392200Y-104776400D02*
X161392200Y-102726400D01*
X161392200Y-108906400D02*
X161392200Y-106856400D01*
X161432200Y-104776400D02*
X161432200Y-102692400D01*
X161432200Y-108940400D02*
X161432200Y-106856400D01*
X161472200Y-104776400D02*
X161472200Y-102660400D01*
X161472200Y-108972400D02*
X161472200Y-106856400D01*
X161512200Y-104776400D02*
X161512200Y-102627400D01*
X161512200Y-109005400D02*
X161512200Y-106856400D01*
X161552200Y-104776400D02*
X161552200Y-102596400D01*
X161552200Y-109036400D02*
X161552200Y-106856400D01*
X161592200Y-104776400D02*
X161592200Y-102566400D01*
X161592200Y-109066400D02*
X161592200Y-106856400D01*
X161632200Y-104776400D02*
X161632200Y-102536400D01*
X161632200Y-109096400D02*
X161632200Y-106856400D01*
X161672200Y-104776400D02*
X161672200Y-102507400D01*
X161672200Y-109125400D02*
X161672200Y-106856400D01*
X161712200Y-104776400D02*
X161712200Y-102478400D01*
X161712200Y-109154400D02*
X161712200Y-106856400D01*
X161752200Y-104776400D02*
X161752200Y-102451400D01*
X161752200Y-109181400D02*
X161752200Y-106856400D01*
X161792200Y-104776400D02*
X161792200Y-102424400D01*
X161792200Y-109208400D02*
X161792200Y-106856400D01*
X161832200Y-104776400D02*
X161832200Y-102398400D01*
X161832200Y-109234400D02*
X161832200Y-106856400D01*
X161872200Y-104776400D02*
X161872200Y-102372400D01*
X161872200Y-109260400D02*
X161872200Y-106856400D01*
X161912200Y-104776400D02*
X161912200Y-102347400D01*
X161912200Y-109285400D02*
X161912200Y-106856400D01*
X161952200Y-104776400D02*
X161952200Y-102323400D01*
X161952200Y-109309400D02*
X161952200Y-106856400D01*
X161992200Y-104776400D02*
X161992200Y-102299400D01*
X161992200Y-109333400D02*
X161992200Y-106856400D01*
X162032200Y-104776400D02*
X162032200Y-102276400D01*
X162032200Y-109356400D02*
X162032200Y-106856400D01*
X162072200Y-104776400D02*
X162072200Y-102254400D01*
X162072200Y-109378400D02*
X162072200Y-106856400D01*
X162112200Y-104776400D02*
X162112200Y-102232400D01*
X162112200Y-109400400D02*
X162112200Y-106856400D01*
X162152200Y-104776400D02*
X162152200Y-102210400D01*
X162152200Y-109422400D02*
X162152200Y-106856400D01*
X162192200Y-104776400D02*
X162192200Y-102189400D01*
X162192200Y-109443400D02*
X162192200Y-106856400D01*
X162232200Y-104776400D02*
X162232200Y-102169400D01*
X162232200Y-109463400D02*
X162232200Y-106856400D01*
X162272200Y-104776400D02*
X162272200Y-102150400D01*
X162272200Y-109482400D02*
X162272200Y-106856400D01*
X162312200Y-104776400D02*
X162312200Y-102130400D01*
X162312200Y-109502400D02*
X162312200Y-106856400D01*
X162352200Y-104776400D02*
X162352200Y-102112400D01*
X162352200Y-109520400D02*
X162352200Y-106856400D01*
X162392200Y-104776400D02*
X162392200Y-102094400D01*
X162392200Y-109538400D02*
X162392200Y-106856400D01*
X162432200Y-104776400D02*
X162432200Y-102076400D01*
X162432200Y-109556400D02*
X162432200Y-106856400D01*
X162472200Y-104776400D02*
X162472200Y-102059400D01*
X162472200Y-109573400D02*
X162472200Y-106856400D01*
X162512200Y-104776400D02*
X162512200Y-102042400D01*
X162512200Y-109590400D02*
X162512200Y-106856400D01*
X162552200Y-104776400D02*
X162552200Y-102026400D01*
X162552200Y-109606400D02*
X162552200Y-106856400D01*
X162592200Y-104776400D02*
X162592200Y-102011400D01*
X162592200Y-109621400D02*
X162592200Y-106856400D01*
X162632200Y-109637400D02*
X162632200Y-101995400D01*
X162672200Y-109651400D02*
X162672200Y-101981400D01*
X162712200Y-109666400D02*
X162712200Y-101966400D01*
X162752200Y-109679400D02*
X162752200Y-101953400D01*
X162792200Y-109693400D02*
X162792200Y-101939400D01*
X162832200Y-109705400D02*
X162832200Y-101927400D01*
X162872200Y-109718400D02*
X162872200Y-101914400D01*
X162912200Y-109730400D02*
X162912200Y-101902400D01*
X162952200Y-109741400D02*
X162952200Y-101891400D01*
X162992200Y-109752400D02*
X162992200Y-101880400D01*
X163032200Y-109763400D02*
X163032200Y-101869400D01*
X163072200Y-109773400D02*
X163072200Y-101859400D01*
X163112200Y-109783400D02*
X163112200Y-101849400D01*
X163152200Y-109792400D02*
X163152200Y-101840400D01*
X163192200Y-109801400D02*
X163192200Y-101831400D01*
X163232200Y-109810400D02*
X163232200Y-101822400D01*
X163272200Y-109818400D02*
X163272200Y-101814400D01*
X163312200Y-109826400D02*
X163312200Y-101806400D01*
X163352200Y-109833400D02*
X163352200Y-101799400D01*
X163393200Y-109840400D02*
X163393200Y-101792400D01*
X163433200Y-109846400D02*
X163433200Y-101786400D01*
X163473200Y-109853400D02*
X163473200Y-101779400D01*
X163513200Y-109858400D02*
X163513200Y-101774400D01*
X163553200Y-109864400D02*
X163553200Y-101768400D01*
X163593200Y-109868400D02*
X163593200Y-101764400D01*
X163633200Y-109873400D02*
X163633200Y-101759400D01*
X163673200Y-109877400D02*
X163673200Y-101755400D01*
X163713200Y-109881400D02*
X163713200Y-101751400D01*
X163753200Y-109884400D02*
X163753200Y-101748400D01*
X163793200Y-109887400D02*
X163793200Y-101745400D01*
X163833200Y-109890400D02*
X163833200Y-101742400D01*
X163873200Y-109892400D02*
X163873200Y-101740400D01*
X163913200Y-109893400D02*
X163913200Y-101739400D01*
X163953200Y-109895400D02*
X163953200Y-101737400D01*
X163993200Y-109896400D02*
X163993200Y-101736400D01*
X164033200Y-109896400D02*
X164033200Y-101736400D01*
X164073200Y-109896400D02*
X164073200Y-101736400D01*
X168193200Y-105816400D02*
G75*
G03X168193200Y-105816400I-4120000J0D01*
G01*
X133271000Y-88152302D02*
X132471000Y-88152302D01*
X132871000Y-87752302D02*
X132871000Y-88552302D01*
X131089000Y-96243000D02*
X130023000Y-96243000D01*
X131324000Y-96203000D02*
X129788000Y-96203000D01*
X131504000Y-96163000D02*
X129608000Y-96163000D01*
X131654000Y-96123000D02*
X129458000Y-96123000D01*
X131785000Y-96083000D02*
X129327000Y-96083000D01*
X131902000Y-96043000D02*
X129210000Y-96043000D01*
X132009000Y-96003000D02*
X129103000Y-96003000D01*
X132108000Y-95963000D02*
X129004000Y-95963000D01*
X132201000Y-95923000D02*
X128911000Y-95923000D01*
X132287000Y-95883000D02*
X128825000Y-95883000D01*
X132369000Y-95843000D02*
X128743000Y-95843000D01*
X132446000Y-95803000D02*
X128666000Y-95803000D01*
X132520000Y-95763000D02*
X128592000Y-95763000D01*
X132590000Y-95723000D02*
X128522000Y-95723000D01*
X129516000Y-95683000D02*
X128454000Y-95683000D01*
X132658000Y-95683000D02*
X131596000Y-95683000D01*
X129516000Y-95643000D02*
X128390000Y-95643000D01*
X132722000Y-95643000D02*
X131596000Y-95643000D01*
X129516000Y-95603000D02*
X128328000Y-95603000D01*
X132784000Y-95603000D02*
X131596000Y-95603000D01*
X129516000Y-95563000D02*
X128269000Y-95563000D01*
X132843000Y-95563000D02*
X131596000Y-95563000D01*
X129516000Y-95523000D02*
X128211000Y-95523000D01*
X132901000Y-95523000D02*
X131596000Y-95523000D01*
X129516000Y-95483000D02*
X128156000Y-95483000D01*
X132956000Y-95483000D02*
X131596000Y-95483000D01*
X129516000Y-95443000D02*
X128102000Y-95443000D01*
X133010000Y-95443000D02*
X131596000Y-95443000D01*
X129516000Y-95403000D02*
X128051000Y-95403000D01*
X133061000Y-95403000D02*
X131596000Y-95403000D01*
X129516000Y-95363000D02*
X128000000Y-95363000D01*
X133112000Y-95363000D02*
X131596000Y-95363000D01*
X129516000Y-95323000D02*
X127952000Y-95323000D01*
X133160000Y-95323000D02*
X131596000Y-95323000D01*
X129516000Y-95283000D02*
X127905000Y-95283000D01*
X133207000Y-95283000D02*
X131596000Y-95283000D01*
X129516000Y-95243000D02*
X127859000Y-95243000D01*
X133253000Y-95243000D02*
X131596000Y-95243000D01*
X129516000Y-95203000D02*
X127815000Y-95203000D01*
X133297000Y-95203000D02*
X131596000Y-95203000D01*
X129516000Y-95163000D02*
X127772000Y-95163000D01*
X133340000Y-95163000D02*
X131596000Y-95163000D01*
X129516000Y-95123000D02*
X127730000Y-95123000D01*
X133382000Y-95123000D02*
X131596000Y-95123000D01*
X129516000Y-95083000D02*
X127689000Y-95083000D01*
X133423000Y-95083000D02*
X131596000Y-95083000D01*
X129516000Y-95043000D02*
X127649000Y-95043000D01*
X133463000Y-95043000D02*
X131596000Y-95043000D01*
X129516000Y-95003000D02*
X127611000Y-95003000D01*
X133501000Y-95003000D02*
X131596000Y-95003000D01*
X129516000Y-94963000D02*
X127573000Y-94963000D01*
X133539000Y-94963000D02*
X131596000Y-94963000D01*
X129516000Y-94923000D02*
X127537000Y-94923000D01*
X133575000Y-94923000D02*
X131596000Y-94923000D01*
X129516000Y-94883000D02*
X127501000Y-94883000D01*
X133611000Y-94883000D02*
X131596000Y-94883000D01*
X129516000Y-94843000D02*
X127466000Y-94843000D01*
X133646000Y-94843000D02*
X131596000Y-94843000D01*
X129516000Y-94803000D02*
X127432000Y-94803000D01*
X133680000Y-94803000D02*
X131596000Y-94803000D01*
X129516000Y-94763000D02*
X127400000Y-94763000D01*
X133712000Y-94763000D02*
X131596000Y-94763000D01*
X129516000Y-94723000D02*
X127367000Y-94723000D01*
X133745000Y-94723000D02*
X131596000Y-94723000D01*
X129516000Y-94683000D02*
X127336000Y-94683000D01*
X133776000Y-94683000D02*
X131596000Y-94683000D01*
X129516000Y-94643000D02*
X127306000Y-94643000D01*
X133806000Y-94643000D02*
X131596000Y-94643000D01*
X129516000Y-94603000D02*
X127276000Y-94603000D01*
X133836000Y-94603000D02*
X131596000Y-94603000D01*
X129516000Y-94563000D02*
X127247000Y-94563000D01*
X133865000Y-94563000D02*
X131596000Y-94563000D01*
X129516000Y-94523000D02*
X127218000Y-94523000D01*
X133894000Y-94523000D02*
X131596000Y-94523000D01*
X129516000Y-94483000D02*
X127191000Y-94483000D01*
X133921000Y-94483000D02*
X131596000Y-94483000D01*
X129516000Y-94443000D02*
X127164000Y-94443000D01*
X133948000Y-94443000D02*
X131596000Y-94443000D01*
X129516000Y-94403000D02*
X127138000Y-94403000D01*
X133974000Y-94403000D02*
X131596000Y-94403000D01*
X129516000Y-94363000D02*
X127112000Y-94363000D01*
X134000000Y-94363000D02*
X131596000Y-94363000D01*
X129516000Y-94323000D02*
X127087000Y-94323000D01*
X134025000Y-94323000D02*
X131596000Y-94323000D01*
X129516000Y-94283000D02*
X127063000Y-94283000D01*
X134049000Y-94283000D02*
X131596000Y-94283000D01*
X129516000Y-94243000D02*
X127039000Y-94243000D01*
X134073000Y-94243000D02*
X131596000Y-94243000D01*
X129516000Y-94203000D02*
X127016000Y-94203000D01*
X134096000Y-94203000D02*
X131596000Y-94203000D01*
X129516000Y-94163000D02*
X126994000Y-94163000D01*
X134118000Y-94163000D02*
X131596000Y-94163000D01*
X129516000Y-94123000D02*
X126972000Y-94123000D01*
X134140000Y-94123000D02*
X131596000Y-94123000D01*
X129516000Y-94083000D02*
X126950000Y-94083000D01*
X134162000Y-94083000D02*
X131596000Y-94083000D01*
X129516000Y-94043000D02*
X126929000Y-94043000D01*
X134183000Y-94043000D02*
X131596000Y-94043000D01*
X129516000Y-94003000D02*
X126909000Y-94003000D01*
X134203000Y-94003000D02*
X131596000Y-94003000D01*
X129516000Y-93963000D02*
X126890000Y-93963000D01*
X134222000Y-93963000D02*
X131596000Y-93963000D01*
X129516000Y-93923000D02*
X126870000Y-93923000D01*
X134242000Y-93923000D02*
X131596000Y-93923000D01*
X129516000Y-93883000D02*
X126852000Y-93883000D01*
X134260000Y-93883000D02*
X131596000Y-93883000D01*
X129516000Y-93843000D02*
X126834000Y-93843000D01*
X134278000Y-93843000D02*
X131596000Y-93843000D01*
X129516000Y-93803000D02*
X126816000Y-93803000D01*
X134296000Y-93803000D02*
X131596000Y-93803000D01*
X129516000Y-93763000D02*
X126799000Y-93763000D01*
X134313000Y-93763000D02*
X131596000Y-93763000D01*
X129516000Y-93723000D02*
X126782000Y-93723000D01*
X134330000Y-93723000D02*
X131596000Y-93723000D01*
X129516000Y-93683000D02*
X126766000Y-93683000D01*
X134346000Y-93683000D02*
X131596000Y-93683000D01*
X129516000Y-93643000D02*
X126751000Y-93643000D01*
X134361000Y-93643000D02*
X131596000Y-93643000D01*
X134377000Y-93603000D02*
X126735000Y-93603000D01*
X134391000Y-93563000D02*
X126721000Y-93563000D01*
X134406000Y-93523000D02*
X126706000Y-93523000D01*
X134419000Y-93483000D02*
X126693000Y-93483000D01*
X134433000Y-93443000D02*
X126679000Y-93443000D01*
X134445000Y-93403000D02*
X126667000Y-93403000D01*
X134458000Y-93363000D02*
X126654000Y-93363000D01*
X134470000Y-93323000D02*
X126642000Y-93323000D01*
X134481000Y-93283000D02*
X126631000Y-93283000D01*
X134492000Y-93243000D02*
X126620000Y-93243000D01*
X134503000Y-93203000D02*
X126609000Y-93203000D01*
X134513000Y-93163000D02*
X126599000Y-93163000D01*
X134523000Y-93123000D02*
X126589000Y-93123000D01*
X134532000Y-93083000D02*
X126580000Y-93083000D01*
X134541000Y-93043000D02*
X126571000Y-93043000D01*
X134550000Y-93003000D02*
X126562000Y-93003000D01*
X134558000Y-92963000D02*
X126554000Y-92963000D01*
X134566000Y-92923000D02*
X126546000Y-92923000D01*
X134573000Y-92883000D02*
X126539000Y-92883000D01*
X134580000Y-92842000D02*
X126532000Y-92842000D01*
X134586000Y-92802000D02*
X126526000Y-92802000D01*
X134593000Y-92762000D02*
X126519000Y-92762000D01*
X134598000Y-92722000D02*
X126514000Y-92722000D01*
X134604000Y-92682000D02*
X126508000Y-92682000D01*
X134608000Y-92642000D02*
X126504000Y-92642000D01*
X134613000Y-92602000D02*
X126499000Y-92602000D01*
X134617000Y-92562000D02*
X126495000Y-92562000D01*
X134621000Y-92522000D02*
X126491000Y-92522000D01*
X134624000Y-92482000D02*
X126488000Y-92482000D01*
X134627000Y-92442000D02*
X126485000Y-92442000D01*
X134630000Y-92402000D02*
X126482000Y-92402000D01*
X134632000Y-92362000D02*
X126480000Y-92362000D01*
X134633000Y-92322000D02*
X126479000Y-92322000D01*
X134635000Y-92282000D02*
X126477000Y-92282000D01*
X134636000Y-92242000D02*
X126476000Y-92242000D01*
X134636000Y-92202000D02*
X126476000Y-92202000D01*
X134636000Y-92162000D02*
X126476000Y-92162000D01*
X134676000Y-92162000D02*
G75*
G03X134676000Y-92162000I-4120000J0D01*
G01*
D10*
X140716000Y-72517000D02*
X140716000Y-69977000D01*
X140716000Y-69977000D02*
X138176000Y-69977000D01*
X138176000Y-69977000D02*
X138176000Y-72517000D01*
X140716000Y-72517000D02*
X140716000Y-108077000D01*
X140716000Y-108077000D02*
X138176000Y-108077000D01*
X138176000Y-108077000D02*
X138176000Y-72517000D01*
X138176000Y-72517000D02*
X140716000Y-72517000D01*
X155956000Y-72517000D02*
X155956000Y-69977000D01*
X155956000Y-69977000D02*
X153416000Y-69977000D01*
X153416000Y-69977000D02*
X153416000Y-72517000D01*
X155956000Y-72517000D02*
X155956000Y-108077000D01*
X155956000Y-108077000D02*
X153416000Y-108077000D01*
X153416000Y-108077000D02*
X153416000Y-72517000D01*
X153416000Y-72517000D02*
X155956000Y-72517000D01*
X121789866Y-77251180D02*
X121789866Y-77965466D01*
X121742247Y-78108323D01*
X121647009Y-78203561D01*
X121504152Y-78251180D01*
X121408914Y-78251180D01*
X122694628Y-77584514D02*
X122694628Y-78251180D01*
X122456533Y-77203561D02*
X122218438Y-77917847D01*
X122837485Y-77917847D01*
X171573866Y-77251180D02*
X171573866Y-77965466D01*
X171526247Y-78108323D01*
X171431009Y-78203561D01*
X171288152Y-78251180D01*
X171192914Y-78251180D01*
X171954819Y-77251180D02*
X172573866Y-77251180D01*
X172240533Y-77632133D01*
X172383390Y-77632133D01*
X172478628Y-77679752D01*
X172526247Y-77727371D01*
X172573866Y-77822609D01*
X172573866Y-78060704D01*
X172526247Y-78155942D01*
X172478628Y-78203561D01*
X172383390Y-78251180D01*
X172097676Y-78251180D01*
X172002438Y-78203561D01*
X171954819Y-78155942D01*
X146380295Y-83190280D02*
X146380295Y-83999804D01*
X146427914Y-84095042D01*
X146475533Y-84142661D01*
X146570771Y-84190280D01*
X146761247Y-84190280D01*
X146856485Y-84142661D01*
X146904104Y-84095042D01*
X146951723Y-83999804D01*
X146951723Y-83190280D01*
X147951723Y-84190280D02*
X147380295Y-84190280D01*
X147666009Y-84190280D02*
X147666009Y-83190280D01*
X147570771Y-83333138D01*
X147475533Y-83428376D01*
X147380295Y-83475995D01*
X162369666Y-91641561D02*
X162512523Y-91689180D01*
X162750619Y-91689180D01*
X162845857Y-91641561D01*
X162893476Y-91593942D01*
X162941095Y-91498704D01*
X162941095Y-91403466D01*
X162893476Y-91308228D01*
X162845857Y-91260609D01*
X162750619Y-91212990D01*
X162560142Y-91165371D01*
X162464904Y-91117752D01*
X162417285Y-91070133D01*
X162369666Y-90974895D01*
X162369666Y-90879657D01*
X162417285Y-90784419D01*
X162464904Y-90736800D01*
X162560142Y-90689180D01*
X162798238Y-90689180D01*
X162941095Y-90736800D01*
X163274428Y-90689180D02*
X163512523Y-91689180D01*
X163703000Y-90974895D01*
X163893476Y-91689180D01*
X164131571Y-90689180D01*
X165036333Y-91689180D02*
X164464904Y-91689180D01*
X164750619Y-91689180D02*
X164750619Y-90689180D01*
X164655380Y-90832038D01*
X164560142Y-90927276D01*
X164464904Y-90974895D01*
X162458495Y-77849480D02*
X162458495Y-78659004D01*
X162506114Y-78754242D01*
X162553733Y-78801861D01*
X162648971Y-78849480D01*
X162839447Y-78849480D01*
X162934685Y-78801861D01*
X162982304Y-78754242D01*
X163029923Y-78659004D01*
X163029923Y-77849480D01*
X163458495Y-77944719D02*
X163506114Y-77897100D01*
X163601352Y-77849480D01*
X163839447Y-77849480D01*
X163934685Y-77897100D01*
X163982304Y-77944719D01*
X164029923Y-78039957D01*
X164029923Y-78135195D01*
X163982304Y-78278052D01*
X163410876Y-78849480D01*
X164029923Y-78849480D01*
X147369233Y-111640880D02*
X147035900Y-111164690D01*
X146797804Y-111640880D02*
X146797804Y-110640880D01*
X147178757Y-110640880D01*
X147273995Y-110688500D01*
X147321614Y-110736119D01*
X147369233Y-110831357D01*
X147369233Y-110974214D01*
X147321614Y-111069452D01*
X147273995Y-111117071D01*
X147178757Y-111164690D01*
X146797804Y-111164690D01*
X148321614Y-111640880D02*
X147750185Y-111640880D01*
X148035900Y-111640880D02*
X148035900Y-110640880D01*
X147940661Y-110783738D01*
X147845423Y-110878976D01*
X147750185Y-110926595D01*
X147786766Y-67587880D02*
X147786766Y-68302166D01*
X147739147Y-68445023D01*
X147643909Y-68540261D01*
X147501052Y-68587880D01*
X147405814Y-68587880D01*
X148215338Y-67683119D02*
X148262957Y-67635500D01*
X148358195Y-67587880D01*
X148596290Y-67587880D01*
X148691528Y-67635500D01*
X148739147Y-67683119D01*
X148786766Y-67778357D01*
X148786766Y-67873595D01*
X148739147Y-68016452D01*
X148167719Y-68587880D01*
X148786766Y-68587880D01*
X130032166Y-102208080D02*
X130032166Y-102922366D01*
X129984547Y-103065223D01*
X129889309Y-103160461D01*
X129746452Y-103208080D01*
X129651214Y-103208080D01*
X131032166Y-103208080D02*
X130460738Y-103208080D01*
X130746452Y-103208080D02*
X130746452Y-102208080D01*
X130651214Y-102350938D01*
X130555976Y-102446176D01*
X130460738Y-102493795D01*
X130452833Y-69648342D02*
X130405214Y-69695961D01*
X130262357Y-69743580D01*
X130167119Y-69743580D01*
X130024261Y-69695961D01*
X129929023Y-69600723D01*
X129881404Y-69505485D01*
X129833785Y-69315009D01*
X129833785Y-69172152D01*
X129881404Y-68981676D01*
X129929023Y-68886438D01*
X130024261Y-68791200D01*
X130167119Y-68743580D01*
X130262357Y-68743580D01*
X130405214Y-68791200D01*
X130452833Y-68838819D01*
X130786166Y-68743580D02*
X131405214Y-68743580D01*
X131071880Y-69124533D01*
X131214738Y-69124533D01*
X131309976Y-69172152D01*
X131357595Y-69219771D01*
X131405214Y-69315009D01*
X131405214Y-69553104D01*
X131357595Y-69648342D01*
X131309976Y-69695961D01*
X131214738Y-69743580D01*
X130929023Y-69743580D01*
X130833785Y-69695961D01*
X130786166Y-69648342D01*
X163841133Y-100750642D02*
X163793514Y-100798261D01*
X163650657Y-100845880D01*
X163555419Y-100845880D01*
X163412561Y-100798261D01*
X163317323Y-100703023D01*
X163269704Y-100607785D01*
X163222085Y-100417309D01*
X163222085Y-100274452D01*
X163269704Y-100083976D01*
X163317323Y-99988738D01*
X163412561Y-99893500D01*
X163555419Y-99845880D01*
X163650657Y-99845880D01*
X163793514Y-99893500D01*
X163841133Y-99941119D01*
X164222085Y-99941119D02*
X164269704Y-99893500D01*
X164364942Y-99845880D01*
X164603038Y-99845880D01*
X164698276Y-99893500D01*
X164745895Y-99941119D01*
X164793514Y-100036357D01*
X164793514Y-100131595D01*
X164745895Y-100274452D01*
X164174466Y-100845880D01*
X164793514Y-100845880D01*
X130452833Y-86996542D02*
X130405214Y-87044161D01*
X130262357Y-87091780D01*
X130167119Y-87091780D01*
X130024261Y-87044161D01*
X129929023Y-86948923D01*
X129881404Y-86853685D01*
X129833785Y-86663209D01*
X129833785Y-86520352D01*
X129881404Y-86329876D01*
X129929023Y-86234638D01*
X130024261Y-86139400D01*
X130167119Y-86091780D01*
X130262357Y-86091780D01*
X130405214Y-86139400D01*
X130452833Y-86187019D01*
X131405214Y-87091780D02*
X130833785Y-87091780D01*
X131119500Y-87091780D02*
X131119500Y-86091780D01*
X131024261Y-86234638D01*
X130929023Y-86329876D01*
X130833785Y-86377495D01*
X138746004Y-66479680D02*
X138746004Y-65479680D01*
X139126957Y-65479680D01*
X139222195Y-65527300D01*
X139269814Y-65574919D01*
X139317433Y-65670157D01*
X139317433Y-65813014D01*
X139269814Y-65908252D01*
X139222195Y-65955871D01*
X139126957Y-66003490D01*
X138746004Y-66003490D01*
X140269814Y-66479680D02*
X139698385Y-66479680D01*
X139984100Y-66479680D02*
X139984100Y-65479680D01*
X139888861Y-65622538D01*
X139793623Y-65717776D01*
X139698385Y-65765395D01*
X153973304Y-66517780D02*
X153973304Y-65517780D01*
X154354257Y-65517780D01*
X154449495Y-65565400D01*
X154497114Y-65613019D01*
X154544733Y-65708257D01*
X154544733Y-65851114D01*
X154497114Y-65946352D01*
X154449495Y-65993971D01*
X154354257Y-66041590D01*
X153973304Y-66041590D01*
X154925685Y-65613019D02*
X154973304Y-65565400D01*
X155068542Y-65517780D01*
X155306638Y-65517780D01*
X155401876Y-65565400D01*
X155449495Y-65613019D01*
X155497114Y-65708257D01*
X155497114Y-65803495D01*
X155449495Y-65946352D01*
X154878066Y-66517780D01*
X155497114Y-66517780D01*
M02*
