M48
; DRILL file {KiCad (5.1.4)-1} date 24/01/2020 10:01:56
; FORMAT={-:-/ absolute / inch / decimal}
; #@! TF.CreationDate,2020-01-24T10:01:56+01:00
; #@! TF.GenerationSoftware,Kicad,Pcbnew,(5.1.4)-1
; #@! TF.FileFunction,Plated,1,2,PTH
FMAT,2
INCH
T1C0.0157
T2C0.0315
T3C0.0394
T4C0.0400
T5C0.0433
T6C0.0472
T7C0.0700
%
G90
G05
T1
X5.719Y-2.6925
X5.7265Y-3.263
X6.459Y-2.947
T2
X5.645Y-4.2695
X5.945Y-4.2695
X6.3476Y-3.678
X6.3476Y-3.804
X6.446Y-3.678
X6.446Y-3.804
X6.5444Y-3.678
X6.5444Y-3.804
X5.14Y-3.53
X5.14Y-3.7269
X5.643Y-3.3885
X5.643Y-3.4885
X5.643Y-3.5885
X5.643Y-3.6885
X5.643Y-3.7885
X5.643Y-3.8885
X5.643Y-3.9885
X5.943Y-3.3885
X5.943Y-3.4885
X5.943Y-3.5885
X5.943Y-3.6885
X5.943Y-3.7885
X5.943Y-3.8885
X5.943Y-3.9885
X6.3611Y-4.166
X6.558Y-4.166
X5.144Y-2.846
X5.144Y-3.0429
T3
X4.808Y-3.172
X4.808Y-3.272
X4.808Y-3.372
X4.808Y-3.472
X4.808Y-3.572
X4.808Y-3.672
X4.808Y-3.772
X4.808Y-3.872
X4.808Y-3.972
X4.808Y-4.072
X4.808Y-4.172
X6.768Y-3.172
X6.768Y-3.272
X6.768Y-3.372
X6.768Y-3.472
X6.768Y-3.572
X6.768Y-3.672
X6.768Y-3.772
X6.768Y-3.872
X6.768Y-3.972
X6.768Y-4.072
X6.768Y-4.172
T4
X5.49Y-2.805
X5.49Y-2.905
X5.49Y-3.005
X5.49Y-3.105
X5.49Y-3.205
X5.49Y-3.305
X5.49Y-3.405
X5.49Y-3.505
X5.49Y-3.605
X5.49Y-3.705
X5.49Y-3.805
X5.49Y-3.905
X5.49Y-4.005
X5.49Y-4.105
X5.49Y-4.205
X6.09Y-2.805
X6.09Y-2.905
X6.09Y-3.005
X6.09Y-3.105
X6.09Y-3.205
X6.09Y-3.305
X6.09Y-3.405
X6.09Y-3.505
X6.09Y-3.605
X6.09Y-3.705
X6.09Y-3.805
X6.09Y-3.905
X6.09Y-4.005
X6.09Y-4.105
X6.09Y-4.205
T5
X6.28Y-2.7655
X6.38Y-2.7655
X6.48Y-2.7655
X6.58Y-2.7655
T6
X5.006Y-4.214
X5.1438Y-4.214
X5.2816Y-4.214
T7
X4.766Y-2.624
X4.768Y-4.426
X6.81Y-4.428
X5.49Y-2.705
X6.81Y-2.624
X5.49Y-4.305
X6.09Y-2.705
X6.09Y-4.305
T3
G00X5.644Y-2.9437
M15
G01X5.644Y-3.0225
M16
G05
G00X5.8684Y-2.865
M15
G01X5.7896Y-2.865
M16
G05
G00X5.8684Y-3.1012
M15
G01X5.7896Y-3.1012
M16
G05
T0
M30
